<svg xmlns="http://www.w3.org/2000/svg" width="80" height="82">
    <defs>
        <clipPath id="clip-path">
            <rect id="Ret칙ngulo_467" data-name="Ret칙ngulo 467" width="80" height="82" rx="10" transform="translate(.169 -.438)" style="stroke:#707070;fill:#fff"/>
        </clipPath>
        <style>
            .cls-3{fill:#fff}
        </style>
    </defs>
    <g id="Grupo_de_m치scara_9" data-name="Grupo de m치scara 9" transform="translate(-.169 .438)" style="clip-path:url(#clip-path)">
        <g id="heart" transform="translate(11.534 .148)">
            <path id="Caminho_1049" data-name="Caminho 1049" class="cls-3" d="M70.793 65.422v.011a1.563 1.563 0 1 0 0-.011zm0 0" transform="translate(-17.648 -15.783)"/>
            <path id="Caminho_1050" data-name="Caminho 1050" class="cls-3" d="M57.511 54.251a1.582 1.582 0 1 0-3.125.495 29.968 29.968 0 0 1 .289 6.81 17.881 17.881 0 0 1-7.3 13.18l-1.07.781a12.159 12.159 0 0 1-9.965 2.015l-4.194-.99a39.362 39.362 0 0 1-20.817-12.663 22.792 22.792 0 0 1-4.25-6.884 1.573 1.573 0 0 0 .058-.674c-.009-.068-.788-6.9 8.851-11.291a22.326 22.326 0 0 0 10.78-10.374c7.247 1 9.742 3.04 9.927 3.2a1.484 1.484 0 0 0 1.457.413q.2-.045.392-.085A11.21 11.21 0 0 1 50.983 44.6a1.583 1.583 0 0 0 2.89-1.291 14.5 14.5 0 0 0-5.782-6.5.167.167 0 0 1 .006-.016 10.568 10.568 0 0 0 .48-3.159c0-.216-.009-.43-.021-.642h1.1a1.582 1.582 0 1 0 0-3.165h-1.792a10.578 10.578 0 0 0-1.676-2.877l.716-.716a1.583 1.583 0 0 0-2.238-2.238l-.828.828a10.511 10.511 0 0 0-4.355-1.655 12.09 12.09 0 0 1 8.208-2.357 1.582 1.582 0 0 0 1.636-1.581V13.2a1.582 1.582 0 0 0-1.452-1.577 38.178 38.178 0 0 0-7.073.217 15.987 15.987 0 0 0-6.937-7.185l1.12-1.672a1.582 1.582 0 0 0-2.63-1.761l-1.6 2.394a11.308 11.308 0 0 0-3.3-.128V1.582a1.582 1.582 0 0 0-3.165 0v2.707a13.572 13.572 0 0 0-4.176 2.727 17.12 17.12 0 0 0-2.585 3.111A3.6 3.6 0 0 0 14.32 8.15h-4.3a3.6 3.6 0 0 0-3.6 3.6v16.173a16.656 16.656 0 0 0-2.3 2.181C.66 34.061-.03 39.246 0 42.9a23.687 23.687 0 0 0 2.615 11.044c.239.639.453 1.255.661 1.853a27.207 27.207 0 0 0 5.642 10.132 42.545 42.545 0 0 0 22.5 13.694l4.193.99a15.324 15.324 0 0 0 12.559-2.539l1.07-.781a21.039 21.039 0 0 0 8.591-15.51 33.1 33.1 0 0 0-.321-7.532zM38.2 35.025a15.473 15.473 0 0 0-3.425-1.71 17.629 17.629 0 0 1 2.059-7 7.552 7.552 0 0 1 1.171-.093 7.409 7.409 0 0 1 7.172 9.257 14.21 14.21 0 0 0-6.977-.458zm7.963-20.3v2.928a14.165 14.165 0 0 0-9.631 3.9c-3.478 3.4-4.527 8.13-4.841 10.816a44.075 44.075 0 0 0-5.439-.972q-.721-.669-1.437-1.263c0-.038.006-.076.006-.115A13.218 13.218 0 0 1 28.9 19.85c5.151-4.751 13.834-5.157 17.261-5.124zm-17.5-8.138a8.313 8.313 0 0 1 2.337.34 11.608 11.608 0 0 1 6.485 5.464 22.85 22.85 0 0 0-10.724 5.123 15.732 15.732 0 0 0-5.009 10.4 18.708 18.708 0 0 0-3.84-1.85v-9.151a1.731 1.731 0 0 0 .072-.2c1.745-6.058 6.036-10.129 10.678-10.129zm-19.07 5.159a.432.432 0 0 1 .431-.431h4.3a.432.432 0 0 1 .431.431v13.636a11.954 11.954 0 0 0-1.579-.035 11.177 11.177 0 0 0-3.579.755zM6.509 32.191a9.615 9.615 0 0 1 6.8-3.682c3.148-.141 6.771 1.57 10.507 4.955a19.392 19.392 0 0 1-9.142 8.685c-6.056 2.756-8.641 6.5-9.744 9.148l-.054.134C2.879 47 1.8 37.559 6.509 32.191zm0 0"/>
            <path id="Caminho_1051" data-name="Caminho 1051" class="cls-3" d="M25.888 84.711a1.582 1.582 0 1 0-2.021 2.436 36.463 36.463 0 0 0 14.826 7.385 1.583 1.583 0 0 0 .728-3.08 33.29 33.29 0 0 1-13.533-6.74zm0 0" transform="translate(-5.819 -21.068)"/>
            <path id="Caminho_1052" data-name="Caminho 1052" class="cls-3" d="M18.352 79.319a1.595 1.595 0 1 0 2.268.2l-.032-.038a1.587 1.587 0 0 0-2.236-.164zm0 0" transform="translate(-4.447 -19.716)"/>
        </g>
    </g>
</svg>
