<svg xmlns="http://www.w3.org/2000/svg" width="1440" height="442">
    <defs>
        <style>
            .cls-10,.cls-2,.cls-8{fill:#fff}.cls-2{font-size:14px}.cls-10,.cls-2{font-family:Poppins-Light,Poppins;font-weight:300}.cls-6{fill:#1a4e60}.cls-9{fill:#46d5cb;font-size:18px;font-family:Poppins-SemiBold,Poppins;font-weight:600}.cls-10{font-size:15px}
        </style>
    </defs>
    <g id="Grupo_2402" data-name="Grupo 2402" transform="translate(0 -3055)">
        <path id="Retângulo_518" data-name="Retângulo 518" transform="translate(0 3055)" style="fill:#042430" d="M0 0h1440v442H0z"/>
        <g id="Grupo_2230" data-name="Grupo 2230">
            <g id="Grupo_2228" data-name="Grupo 2228">
                <text id="Não_sabe_qual_profissional_escolher_Confira_quem_são_os_melhores_de_cada_especialidade_de_acordo_com_quem_usa_o_Agenda_Saúde_" data-name="Não sabe qual profissional escolher? Confira quem são os melhores de cada especialidade, de acordo com quem usa o Agenda Saúde!" class="cls-2" transform="translate(94 3232)"><tspan x="0" y="15">Não sabe qual profissional escolher? Confira quem </tspan><tspan x="0" y="36">são os melhores de cada especialidade, de acordo </tspan><tspan x="0" y="57">com quem usa o Agenda Saúde!</tspan></text>
                <g id="Camada_2" data-name="Camada 2" transform="translate(-8.303 3333.151)">
                    <g id="Camada_1" data-name="Camada 1" transform="translate(68.953 -200.003)">
                        <text id="Agenda_Saúde" data-name="Agenda Saúde" transform="translate(115.349 37.852)" style="font-weight:700;font-size:25px;font-family:Ubuntu-Bold,Ubuntu;fill:#fff"><tspan x="0" y="0" style="letter-spacing:-.01em">A</tspan><tspan y="0">genda</tspan><tspan x="0" y="29" style="letter-spacing:.01em">S</tspan><tspan y="29">aúde</tspan></text>
                        <path id="Caminho_1085" data-name="Caminho 1085" class="cls-6" d="M92.5 0h-6.93a3.638 3.638 0 0 0-3.73 3.485v11.064h4.068V4.067h6.263v10.482h4.068V3.485A3.638 3.638 0 0 0 92.5 0z" transform="translate(-39.208 .002)"/>
                        <path id="Caminho_1086" data-name="Caminho 1086" class="cls-6" d="M143.676 0h-6.936A3.638 3.638 0 0 0 133 3.485v11.064h4.068V4.067h6.269v10.482h4.063V3.485A3.638 3.638 0 0 0 143.676 0z" transform="translate(-59.352 .003)"/>
                        <path id="Caminho_1087" data-name="Caminho 1087" d="M122.027 20.94H75.018a8.488 8.488 0 0 0-8.488 8.488V74.14c0 4.735 3.092 7.881 8.269 8.488l.321.042c2.486.394 9.052 1.425 23.4-11.6 8.627 7.827 15.763 11.8 21.219 11.8a13.2 13.2 0 0 0 2.122-.188h.073c.115 0 .218-.036.315-.042 5.171-.57 8.263-3.741 8.263-8.488v-44.73a8.488 8.488 0 0 0-8.488-8.482zM86.519 51.253a5.232 5.232 0 0 1 5.22-5.226c2.092 0 3.256 1.14 5.08 3.7l1.7 2.383 1.643-2.425c1.819-2.7 3.159-3.638 5.044-3.638a5.22 5.22 0 0 1 4.05 8.5l-.546.57L98.5 65.319l-9.86-9.864a14.928 14.928 0 0 1-1.055-1.17 4.99 4.99 0 0 1-1.067-3.037zm24.905 6.887.115-.109.746-.752.055-.067a9.288 9.288 0 0 0-7.136-15.26 8.736 8.736 0 0 0-6.742 3.274 8.666 8.666 0 0 0-6.723-3.262 9.3 9.3 0 0 0-9.288 9.282 9.039 9.039 0 0 0 1.855 5.454 18.188 18.188 0 0 0 1.412 1.6l9.906 9.9c-12.78 11.555-18.109 10.725-19.892 10.44a4.394 4.394 0 0 1-.491-.067c-3.121-.347-4.641-1.82-4.641-4.433V29.422a4.42 4.42 0 0 1 4.42-4.414h47.01a4.42 4.42 0 0 1 4.42 4.414v44.712c0 2.637-1.522 4.086-4.638 4.432a3.454 3.454 0 0 0-.515.073c-1.734.273-7.1 1.146-19.922-10.47z" transform="translate(-33.18 -8.243)" style="fill:#46d5cb"/>
                    </g>
                </g>
            </g>
            <g id="Grupo_2229" data-name="Grupo 2229">
                <path id="facebook" class="cls-8" d="M16.379 4.14h2.276V.176A29.394 29.394 0 0 0 15.339 0c-3.282 0-5.53 2.064-5.53 5.859v3.492H6.187v4.432h3.622v11.152h4.44V13.784h3.475l.552-4.432h-4.028V6.3c0-1.281.346-2.158 2.131-2.158z" transform="translate(87.813 3323.858)"/>
                <g id="instagram" transform="translate(127.247 3323.988)">
                    <path id="Caminho_38" data-name="Caminho 38" class="cls-8" d="M25.056 7.254a9.016 9.016 0 0 0-.574-2.993 6.321 6.321 0 0 0-3.61-3.61 9.039 9.039 0 0 0-2.994-.574C16.558.015 16.138 0 12.788 0S9.019.015 7.7.072a9.019 9.019 0 0 0-2.99.574 6.02 6.02 0 0 0-2.189 1.427A6.075 6.075 0 0 0 1.1 4.256a9.04 9.04 0 0 0-.574 2.993C.463 8.57.449 8.99.449 12.34s.014 3.769.072 5.085a9.016 9.016 0 0 0 .574 2.993 6.32 6.32 0 0 0 3.61 3.61A9.041 9.041 0 0 0 7.7 24.6c1.316.058 1.735.072 5.085.072s3.769-.014 5.085-.072a9.014 9.014 0 0 0 2.993-.574 6.311 6.311 0 0 0 3.61-3.61 9.046 9.046 0 0 0 .574-2.993c.058-1.316.072-1.735.072-5.085s0-3.769-.063-5.085zm-2.222 10.075a6.763 6.763 0 0 1-.424 2.29 4.093 4.093 0 0 1-2.343 2.343 6.787 6.787 0 0 1-2.29.424c-1.3.058-1.692.072-4.984.072s-3.687-.014-4.984-.072a6.759 6.759 0 0 1-2.29-.424A3.8 3.8 0 0 1 4.1 21.04a3.836 3.836 0 0 1-.921-1.417 6.788 6.788 0 0 1-.424-2.29c-.058-1.3-.072-1.692-.072-4.984s.014-3.687.072-4.984a6.76 6.76 0 0 1 .424-2.29 3.75 3.75 0 0 1 .926-1.417 3.83 3.83 0 0 1 1.417-.921 6.792 6.792 0 0 1 2.29-.424c1.3-.058 1.692-.072 4.984-.072s3.687.014 4.984.072a6.763 6.763 0 0 1 2.29.424 3.794 3.794 0 0 1 1.417.921 3.835 3.835 0 0 1 .921 1.417 6.791 6.791 0 0 1 .424 2.29c.058 1.3.072 1.692.072 4.984s-.014 3.678-.072 4.979zm0 0" transform="translate(-.449)"/>
                    <path id="Caminho_39" data-name="Caminho 39" class="cls-8" d="M131.288 124.5a6.339 6.339 0 1 0 6.339 6.339 6.34 6.34 0 0 0-6.339-6.339zm0 10.45a4.112 4.112 0 1 1 4.112-4.112 4.112 4.112 0 0 1-4.112 4.112zm0 0" transform="translate(-118.948 -118.499)"/>
                    <path id="Caminho_40" data-name="Caminho 40" class="cls-8" d="M365.409 90.082a1.48 1.48 0 1 1-1.48-1.48 1.48 1.48 0 0 1 1.48 1.48zm0 0" transform="translate(-345.001 -84.331)"/>
                </g>
            </g>
        </g>
        <g id="Grupo_2227" data-name="Grupo 2227">
            <text id="Links_Rápidos" data-name="Links Rápidos" class="cls-9" transform="translate(606 3174)"><tspan x="0" y="0">Links Rápidos</tspan></text>
            <g id="Grupo_2226" data-name="Grupo 2226">
                <text id="Início" class="cls-10" transform="translate(606 3207)"><tspan x="0" y="0">Início</tspan></text>
                <text id="Buscar_Profissional" data-name="Buscar Profissional" class="cls-10" transform="translate(606 3231)"><tspan x="0" y="0">Buscar Profissional</tspan></text>
                <text id="Contato" class="cls-10" transform="translate(606 3255)"><tspan x="0" y="0">Contato</tspan></text>
                <text id="Trabalhe_Conosco" data-name="Trabalhe Conosco" class="cls-10" transform="translate(606 3279)"><tspan x="0" y="0">Trabalhe Conosco</tspan></text>
                <text id="Dúvidas_Frequentes" data-name="Dúvidas Frequentes" class="cls-10" transform="translate(606 3303)"><tspan x="0" y="0">Dúvidas Frequentes</tspan></text>
                <text id="Quero_me_Cadastrar" data-name="Quero me Cadastrar" class="cls-10" transform="translate(606 3327)"><tspan x="0" y="0">Quero me Cadastrar</tspan></text>
            </g>
        </g>
        <text id="Contato-2" data-name="Contato" class="cls-9" transform="translate(896 3174)"><tspan x="0" y="0">Contato</tspan></text>
        <g id="Grupo_2232" data-name="Grupo 2232">
            <path id="Retângulo_519" data-name="Retângulo 519" transform="translate(0 3432)" style="fill:#021f29" d="M0 0h1440v65H0z"/>
            <g id="Grupo_2231" data-name="Grupo 2231">
                <text id="Copyright_2021_Agenda_Saúde._All_rights_reserved_to_Eficienthis." data-name="Copyright © 2021 Agenda Saúde. All rights reserved to Eficienthis." class="cls-2" transform="translate(94 3471)"><tspan x="0" y="0">Copyright © 2021 </tspan><tspan y="0" style="font-family:Poppins-Bold,Poppins;font-weight:700">Agenda Saúde</tspan><tspan y="0">. All rights reserved to Eficienthis.</tspan></text>
                <text id="Políticas_de_Privacidade_Termos_e_Condições" data-name="Políticas de Privacidade | Termos e Condições" class="cls-2" transform="translate(1346 3471)"><tspan x="-316.708" y="0">Políticas de Privacidade | Termos e Condições</tspan></text>
            </g>
        </g>
        <text id="ouvidoria_agendasaude.com.br" data-name="ouvidoria@agendasaude.com.br" class="cls-10" transform="translate(896 3207)"><tspan x="0" y="0">ouvidoria@agendasaude.com.br</tspan></text>
        <text id="_67_3423-4684_67_9_9165-4896" data-name="(67) 3423-4684 | (67) 9 9165-4896" class="cls-10" transform="translate(896 3278)"><tspan x="0" y="0">(67) 3423-4684 | (67) 9 9165-4896</tspan></text>
        <text id="Av._Marcelino_Pires_3452_-_79832-4684_Dourados_-_MS" data-name="Av. Marcelino Pires, 3452 - 79832-4684 Dourados - MS" class="cls-10" transform="translate(896 3231)"><tspan x="0" y="0">Av. Marcelino Pires, 3452 - 79832-4684</tspan><tspan x="0" y="23">Dourados - MS</tspan></text>
    </g>
</svg>
