<svg xmlns="http://www.w3.org/2000/svg" width="80" height="82">
    <defs>
        <clipPath id="clip-path">
            <rect id="Ret칙ngulo_468" data-name="Ret칙ngulo 468" width="80" height="82" rx="10" transform="translate(.169 .082)" style="stroke:#707070;fill:#fff"/>
        </clipPath>
        <style>
            .cls-3{fill:#fff}
        </style>
    </defs>
    <g id="Grupo_de_m치scara_13" data-name="Grupo de m치scara 13" transform="translate(-.169 -.082)" style="clip-path:url(#clip-path)">
        <g id="ginecologista" transform="translate(-.019 3.439)">
            <g id="Grupo_324" data-name="Grupo 324">
                <g id="Grupo_323" data-name="Grupo 323">
                    <path id="Caminho_1072" data-name="Caminho 1072" class="cls-3" d="M60.863 38.537a20.15 20.15 0 0 0-17.116 9.451 20.94 20.94 0 0 0-1.865 3.793h-8.877v-2.296a16.7 16.7 0 0 0 5.355-3.665 17.539 17.539 0 0 0 4.685-8.287 4.484 4.484 0 0 0 3.984-4.574 4.726 4.726 0 0 0-1.259-3.219 3.953 3.953 0 0 0-2.263-1.275v-1.9a8.841 8.841 0 0 0 10.885-3.586A8.8 8.8 0 0 0 52.4 11.6a7.09 7.09 0 0 0-.972-.685 8.805 8.805 0 0 0-10.789 1.355 17.753 17.753 0 0 0-27.4-2.821 17.482 17.482 0 0 0-2.183 2.661 1.2 1.2 0 0 0-.367.59 17.31 17.31 0 0 0-2.279 5.944h.032a11.822 11.822 0 0 0-.319 3.363v6.454a4.045 4.045 0 0 0-2.279 1.275 4.726 4.726 0 0 0-1.254 3.223 4.509 4.509 0 0 0 4 4.574 17.492 17.492 0 0 0 10.694 12.223v2.024h-6.821A12.5 12.5 0 0 0 0 64.339v12.653a1.186 1.186 0 0 0 1.2 1.243h54.579a17.458 17.458 0 0 0 5.052.653 20.176 20.176 0 0 0 .032-40.352zM7.14 32.959a2.14 2.14 0 0 1 .606-1.482 1.466 1.466 0 0 1 .4-.3v2.088c0 .51-.016 1.02.032 1.514a2.141 2.141 0 0 1-1.038-1.82zM37.93 54.33h3.219a20.355 20.355 0 0 0-.319 6.948 5.232 5.232 0 0 0-.494-.542 4.846 4.846 0 0 0-2.406-1.355zm.637 8.208a2.609 2.609 0 0 1 .653 1.084 2.541 2.541 0 0 1 .112.765 2.614 2.614 0 1 1-2.6-2.614 2.555 2.555 0 0 1 1.835.765zm4.956-29.292v-2.072a1.4 1.4 0 0 1 .382.3 2.243 2.243 0 0 1 .574 1.482 2.076 2.076 0 0 1-1 1.817c.045-.507.045-1.002.045-1.527zm9.594-14.232a6.329 6.329 0 0 1-.861 2.63 6.255 6.255 0 0 1-7 2.789zm-1.371-4.526a6.005 6.005 0 0 1 .956 1.705l-9.18 6.3v-.494a16.408 16.408 0 0 0-.064-1.769zm-2.087-1.658L43 17.484a16.921 16.921 0 0 0-1.02-2.853 6.252 6.252 0 0 1 7.679-1.801zm-34.583-1.577a15.143 15.143 0 0 1 10.758-4.447q.622 0 1.243.048a17.514 17.514 0 0 1-12.686 5.132 9.83 9.83 0 0 1 .685-.733zm-2.438 3.187q1.028.1 2.056.1a20.242 20.242 0 0 0 15.379-7.128 14.684 14.684 0 0 1 2.837 1.147c-3.522 5.434-8.319 8.638-14.3 9.53a22.875 22.875 0 0 1-7.443-.159 14.6 14.6 0 0 1 1.471-3.49zm-1.9 5.992a25.111 25.111 0 0 0 4.638.43 23.651 23.651 0 0 0 3.522-.255A22.694 22.694 0 0 0 35.077 9.914a15.438 15.438 0 0 1 4.207 4.972 1.443 1.443 0 0 0 .207.414 14.954 14.954 0 0 1 1.355 4.367 16.153 16.153 0 0 1 .159 2.327v.781a13.894 13.894 0 0 1-4.446-6.423 1.278 1.278 0 0 0-1.052-.956 1.223 1.223 0 0 0-1.243.622c-6.247 10.741-19.905 8.829-23.571 8.08V22.01a13.047 13.047 0 0 1 .048-1.578zm.162 15.475a16.5 16.5 0 0 1-.207-2.661V26.68a34.95 34.95 0 0 0 6.307.573c5.689 0 13.116-1.434 18.009-7.857a15.262 15.262 0 0 0 5.96 6.439v7.411a15.126 15.126 0 0 1-15.156 15.2 14.737 14.737 0 0 1-4.781-.781A15.074 15.074 0 0 1 10.9 35.907zm13.659 39.779H2.566V64.339a9.954 9.954 0 0 1 9.913-10.009h1.084v5.164a6.5 6.5 0 0 0-3.108 1.706 6.372 6.372 0 0 0-1.833 4.478v7.06a1.3 1.3 0 0 0 1.211 1.355h2.024a1.275 1.275 0 1 0 0-2.55h-.685v-5.866a3.649 3.649 0 0 1 3.6-3.7h.112a3.718 3.718 0 0 1 3.777 3.7v5.865H17.4a1.275 1.275 0 0 0 0 2.55h2.534a1.349 1.349 0 0 0 1.275-1.355v-7.06a6.374 6.374 0 0 0-5.1-6.2V54.33H20l4.558 4.893zM21.85 52.561v-2.024a17.673 17.673 0 0 0 8.606-.159v2.151L25.945 56.9zm5.259 23.124v-16.43l5.164-4.925H35.4v5.052a5.182 5.182 0 1 0 6.4 5.976 20.066 20.066 0 0 0 4.462 7.3 16.891 16.891 0 0 0 3.7 3.028H27.109zm33.754.669a17.255 17.255 0 0 1-4.606-.622 17.659 17.659 0 0 1-12.271-22.167v-.016a17.625 17.625 0 1 1 16.877 22.806z" transform="translate(0 -4.259)"/>
                </g>
            </g>
            <g id="Grupo_326" data-name="Grupo 326" transform="translate(43.824 44.828)">
                <g id="Grupo_325" data-name="Grupo 325">
                    <path id="Caminho_1073" data-name="Caminho 1073" class="cls-3" d="M92.061 69.511a3.187 3.187 0 0 0-1.912-1.418 4.514 4.514 0 0 0-1.227-2.136 4.656 4.656 0 0 0-6.582.016.927.927 0 0 0-.287.271 6.394 6.394 0 0 0-4.319-2.215h-.048c-.159-.016-.319-.016-.51-.016h-3.985a5.181 5.181 0 0 0-.526.032h-.032a6.329 6.329 0 0 0-4.319 2.215 2.449 2.449 0 0 0-.271-.3 4.655 4.655 0 0 0-6.582 0 4.7 4.7 0 0 0-1.275 2.359 3.236 3.236 0 1 0 4.351 1.418 3.2 3.2 0 0 0-1.626-1.514 2.111 2.111 0 0 1 3.952.924 6.82 6.82 0 0 0 .335 4.175.9.9 0 0 0 .127.207l3.729 5.658v.413a3.831 3.831 0 0 0 1.61 3.14v.335c0 .4-.032.749-.032.765a1.259 1.259 0 0 0 1.168 1.368 1.282 1.282 0 0 0 1.355-1.02 1.282 1.282 0 0 0 1.259 1.084h.1a1.283 1.283 0 0 0 1.171-1.372s-.032-.382-.032-.8c0-.127-.016-.223-.016-.3a3.834 3.834 0 0 0 1.689-3.2v-.414l3.745-5.658c.048-.064.08-.143.127-.207a6.82 6.82 0 0 0 .335-4.175 2.109 2.109 0 0 1 3.6-1.387 1.924 1.924 0 0 1 .462.7 3.242 3.242 0 1 0 4.462 1.052zm-30.424 2.374a.7.7 0 1 1 .7-.7.707.707 0 0 1-.7.7zm19.236.351L77 78.1a1.222 1.222 0 0 0-.223.7v.8a1.336 1.336 0 0 1-.765 1.2 1.674 1.674 0 0 0-.877 1.371 1.776 1.776 0 0 0-.845-1.4 1.305 1.305 0 0 1-.7-1.163v-.8a1.222 1.222 0 0 0-.223-.7l-3.873-5.865a4.286 4.286 0 0 1 .335-3.761 3.874 3.874 0 0 1 3-1.9c.127 0 .255-.016.367-.016h4.367a4.073 4.073 0 0 1 2.98 1.9 4.315 4.315 0 0 1 .33 3.77zm8.4-.335a.707.707 0 0 1-.7-.7.718.718 0 0 1 .7-.7.7.7 0 1 1 0 1.4z" transform="translate(-58.415 -64.012)"/>
                </g>
            </g>
            <g id="Grupo_328" data-name="Grupo 328" transform="translate(14.678 26.867)">
                <g id="Grupo_327" data-name="Grupo 327">
                    <path id="Caminho_1074" data-name="Caminho 1074" class="cls-3" d="M26.418 40.071a1.279 1.279 0 0 0-1.275 1.275v.7a1.514 1.514 0 0 1-3.028 0v-.7a1.275 1.275 0 1 0-2.55 0v.7a4.109 4.109 0 0 0 4.064 4.08 4.074 4.074 0 0 0 4.064-4.08v-.7a1.279 1.279 0 0 0-1.275-1.275z" transform="translate(-19.565 -40.071)"/>
                </g>
            </g>
            <g id="Grupo_330" data-name="Grupo 330" transform="translate(28.702 26.867)">
                <g id="Grupo_329" data-name="Grupo 329">
                    <path id="Caminho_1075" data-name="Caminho 1075" class="cls-3" d="M45.271 40.071A1.279 1.279 0 0 0 44 41.346v.7a1.547 1.547 0 0 1-1.562 1.53 1.66 1.66 0 0 1-1.132-.446 1.565 1.565 0 0 1-.494-1.084v-.7a1.275 1.275 0 1 0-2.55 0v.7a4.1 4.1 0 0 0 1.238 2.886 4.189 4.189 0 0 0 2.932 1.2 4.1 4.1 0 0 0 4.112-4.08v-.7a1.279 1.279 0 0 0-1.273-1.281z" transform="translate(-38.259 -40.071)"/>
                </g>
            </g>
        </g>
    </g>
</svg>
