<svg xmlns="http://www.w3.org/2000/svg" width="81" height="82">
    <defs>
        <clipPath id="clip-path">
            <rect id="Ret칙ngulo_474" data-name="Ret칙ngulo 474" width="81" height="82" rx="10" transform="translate(.272 .082)" style="stroke:#707070;fill:#fff"/>
        </clipPath>
        <style>
            .cls-3{fill:#fff}
        </style>
    </defs>
    <g id="Grupo_de_m치scara_16" data-name="Grupo de m치scara 16" transform="translate(-.272 -.082)" style="clip-path:url(#clip-path)">
        <g id="Page-1" transform="translate(.354 .245)">
            <g id="_007---Autism" data-name="007---Autism">
                <path id="Shape" class="cls-3" d="M3.787 50.491a9.758 9.758 0 0 0 1.4.81c.583.3 1.562.8 1.631 1.148a2.347 2.347 0 0 1-.159 1.368c-.2.432-.412.8-.594 1.124-.494.874-1.322 2.337-.074 3.357.292.27.8.66 1.254 1.013a3.4 3.4 0 0 0-.439 1.949 1.95 1.95 0 0 0 .8 1.329c.3.211.62.394.934.574.8.454 1.111.666 1.215 1.09a3.72 3.72 0 0 1-.135 1.62c-.08.361-.157.722-.2 1.08a8.036 8.036 0 0 0 .444 3.638 5.058 5.058 0 0 0 4.778 3.68 5.429 5.429 0 0 0 1.107-.117 102.469 102.469 0 0 0 11.385-3.407C30.177 72.53 32.1 77.959 32.6 80a1.35 1.35 0 0 0 1.311 1.025l33.889-.098a1.35 1.35 0 0 0 1.286-1.755 10.419 10.419 0 0 0-1.368-2.566 12.6 12.6 0 0 1-.874-1.461 25.447 25.447 0 0 1-1.52-3.845 45.3 45.3 0 0 1-1.6-7.986 22.8 22.8 0 0 1 .878-9.3h3.362a4.051 4.051 0 0 0 4.051-4.051V32.409a1.35 1.35 0 0 0-1.35-1.35h-5.45a4.911 4.911 0 0 0 .049-.675 4.726 4.726 0 1 0-9.452 0 4.91 4.91 0 0 0 .049.675h-4.1v-4.1a4.778 4.778 0 0 0 2.22-.209 4.727 4.727 0 0 0-2.22-9.147v-5.45a1.35 1.35 0 0 0-1.35-1.35H32.857a4.051 4.051 0 0 0-4.051 4.051v35.109a4.051 4.051 0 0 0 4.051 4.051h28.912a25.538 25.538 0 0 0-.72 9.628 48.148 48.148 0 0 0 1.7 8.467 28.3 28.3 0 0 0 1.676 4.227A14.982 14.982 0 0 0 65.47 78.1l.09.135-30.629.085a21.511 21.511 0 0 0-4.753-8.62l1.215-.425c.9-.316 1.587-.554 1.936-.666 5.785-1.83 8.677-4.464 8.6-7.832a1.351 1.351 0 1 0-2.7.063c.032 1.39-1.106 3.416-6.719 5.192-.366.117-1.071.363-2.007.69-1 .351-2.279.8-3.686 1.275h-.009a105.068 105.068 0 0 1-11.613 3.511 2.389 2.389 0 0 1-2.771-1.8 5.369 5.369 0 0 1-.317-2.409c.035-.284.1-.564.162-.847a5.911 5.911 0 0 0 .117-2.874 4.479 4.479 0 0 0-2.5-2.763l-.28-.159a5.062 5.062 0 0 1 .52-.835 1.35 1.35 0 0 0-.26-1.921 53.904 53.904 0 0 1-1.647-1.261l.2-.365c.212-.371.454-.8.69-1.3a5.063 5.063 0 0 0 .361-3.022c-.324-1.647-1.9-2.455-3.053-3.044a7.818 7.818 0 0 1-1.117-.653 5.852 5.852 0 0 1-.8-.655c0-.205.22-.7 1.249-1.954A54.516 54.516 0 0 0 11.934 35.6a4.017 4.017 0 0 0 .52-1.824 4.726 4.726 0 0 0-1.973-3.376c-.54-.5-1.06-.974-1.121-1.414a2.431 2.431 0 0 1 .211-.924c.22-.579.474-1.146.729-1.715a19.727 19.727 0 0 0 1.321-3.561l.135-.575a33.76 33.76 0 0 1 1.1-3.986 23.158 23.158 0 0 1 4.844-7.91c2.583-2.733 6.649-4.667 12.1-5.751A87.62 87.62 0 0 1 42.471 2.74a29.051 29.051 0 0 1 17.394 4.73v1.307a1.35 1.35 0 0 0 2.161 1.08 2.082 2.082 0 0 1 2.791.358 2.037 2.037 0 0 1 .39 1.746 2 2 0 0 1-1.291 1.427 2.039 2.039 0 0 1-1.9-.29 1.35 1.35 0 0 0-2.152 1.08v6.077a2.7 2.7 0 0 0 2.7 2.7h6.077a1.35 1.35 0 0 0 1.08-2.161 2.026 2.026 0 1 1 3.241 0 1.35 1.35 0 0 0 1.08 2.161h7.428a1.35 1.35 0 0 0 1.35-1.35V4.051A4.051 4.051 0 0 0 78.769 0H61.215a1.35 1.35 0 0 0-1.35 1.35v2.886A31.987 31.987 0 0 0 42.334.042a90.129 90.129 0 0 0-13.062 1.874c-6.089 1.215-10.514 3.35-13.535 6.542a25.873 25.873 0 0 0-5.416 8.835 36.627 36.627 0 0 0-1.2 4.312l-.135.57a17.619 17.619 0 0 1-1.155 3.076c-.27.616-.551 1.232-.793 1.869a4.509 4.509 0 0 0-.356 2.258A5.161 5.161 0 0 0 8.654 32.4c.66.6 1.094 1.032 1.1 1.4a2.222 2.222 0 0 1-.23.586 52.24 52.24 0 0 1-5.908 9.6c-.98 1.194-2.006 2.584-1.79 3.975a4.126 4.126 0 0 0 1.961 2.53zm27.72-35.637a1.35 1.35 0 0 1 1.35-1.35h16.2v6.076a1.35 1.35 0 0 0 2.161 1.08 2.082 2.082 0 0 1 2.791.358 2.037 2.037 0 0 1 .39 1.746 2 2 0 0 1-1.291 1.427 2.039 2.039 0 0 1-1.9-.3 1.35 1.35 0 0 0-2.148 1.086v6.077h-4.1a4.8 4.8 0 0 0-.211-2.217 4.727 4.727 0 0 0-9.2 1.542 4.91 4.91 0 0 0 .049.675h-4.1zm0 35.109v-16.2h6.077a1.35 1.35 0 0 0 1.08-2.161 2.028 2.028 0 0 1 2.105-3.181 1.994 1.994 0 0 1 1.431 1.287 2.026 2.026 0 0 1-.3 1.9 1.35 1.35 0 0 0 1.087 2.15h6.077v4.1a4.726 4.726 0 1 0 0 9.355v4.1h-16.2a1.35 1.35 0 0 1-1.357-1.35zm19.506-5.942a1.359 1.359 0 0 0-1.417.135 2.026 2.026 0 1 1 0-3.241 1.35 1.35 0 0 0 2.161-1.08v-6.076h6.077a1.35 1.35 0 0 0 1.08-2.161 2.026 2.026 0 1 1 3.241 0 1.35 1.35 0 0 0 1.08 2.161h6.082v16.2a1.35 1.35 0 0 1-1.35 1.35h-16.2v-6.072a1.35 1.35 0 0 0-.754-1.215zM62.565 2.7h16.2a1.35 1.35 0 0 1 1.35 1.35v16.2h-4.1a4.909 4.909 0 0 0 .049-.675 4.726 4.726 0 1 0-9.452 0 4.911 4.911 0 0 0 .049.675h-4.1v-4.1a4.778 4.778 0 0 0 2.22-.209A4.727 4.727 0 0 0 62.565 6.8z" transform="translate(-1.797)"/>
                <path id="Shape-2" data-name="Shape" class="cls-3" d="m21.009 27 .135-.586a30.333 30.333 0 0 1 .91-3.337A17.644 17.644 0 0 1 25.769 17a11.4 11.4 0 0 1 3.673-2.474 1.35 1.35 0 1 0-1.1-2.463 14.02 14.02 0 0 0-4.542 3.09 20.316 20.316 0 0 0-4.287 7 32.4 32.4 0 0 0-1.009 3.661l-.135.594a1.35 1.35 0 0 0 1.02 1.62 1.337 1.337 0 0 0 .3.034A1.35 1.35 0 0 0 21.009 27z" transform="translate(-5.929 -2.98)"/>
                <circle id="Oval" class="cls-3" cx="1.35" cy="1.35" r="1.35" transform="translate(10.805 27.007)"/>
            </g>
        </g>
    </g>
</svg>
