<svg xmlns="http://www.w3.org/2000/svg" width="81" height="82">
    <defs>
        <clipPath id="clip-path">
            <rect id="Ret칙ngulo_473" data-name="Ret칙ngulo 473" width="81" height="82" rx="10" transform="translate(.272 -.438)" style="stroke:#707070;fill:#fff"/>
        </clipPath>
        <style>
            .cls-3{fill:#fff}
        </style>
    </defs>
    <g id="Grupo_de_m치scara_12" data-name="Grupo de m치scara 12" transform="translate(-.272 .438)" style="clip-path:url(#clip-path)">
        <g id="pediatra" transform="translate(5.418 .148)">
            <g id="Grupo_322" data-name="Grupo 322">
                <path id="Caminho_1064" data-name="Caminho 1064" class="cls-3" d="M35.992 37.5a1.187 1.187 0 0 0 1.187-1.187v-3.4a1.187 1.187 0 0 0-2.374 0v3.4a1.187 1.187 0 0 0 1.187 1.187z" transform="translate(-13.758 -7.925)"/>
                <path id="Caminho_1065" data-name="Caminho 1065" class="cls-3" d="M54.976 37.5a1.187 1.187 0 0 0 1.187-1.187v-3.4a1.187 1.187 0 0 0-2.374 0v3.4a1.187 1.187 0 0 0 1.187 1.187z" transform="translate(-18.5 -7.925)"/>
                <path id="Caminho_1066" data-name="Caminho 1066" class="cls-3" d="m42.484 39.487 1.978 1.381a1.187 1.187 0 0 0 1.359-1.946l-1.2-.84 1.388-3.44a1.187 1.187 0 0 0-2.2-.888l-1.746 4.316a1.187 1.187 0 0 0 .421 1.417z" transform="translate(-15.549 -8.246)"/>
                <path id="Caminho_1067" data-name="Caminho 1067" class="cls-3" d="M43.929 52.789a5.951 5.951 0 0 0 5.815-4.747 1.979 1.979 0 0 0-1.939-2.374h-7.752a1.979 1.979 0 0 0-1.939 2.373 5.951 5.951 0 0 0 5.815 4.748zm3.358-4.747a3.563 3.563 0 0 1-6.717 0z" transform="translate(-14.574 -11.407)"/>
                <path id="Caminho_1068" data-name="Caminho 1068" class="cls-3" d="M76.2 85.944v-1.623a1.187 1.187 0 1 0-2.374 0v1.623a1.187 1.187 0 0 0 2.374 0z" transform="translate(-23.505 -20.765)"/>
                <path id="Caminho_1069" data-name="Caminho 1069" class="cls-3" d="M85.351 83.134a1.187 1.187 0 0 0-1.187 1.187v1.623a1.187 1.187 0 0 0 2.374 0V84.32a1.187 1.187 0 0 0-1.187-1.186z" transform="translate(-26.087 -20.765)"/>
                <path id="Caminho_1070" data-name="Caminho 1070" class="cls-3" d="M80.687 90.44a1.663 1.663 0 0 1-2.35 0 1.187 1.187 0 0 0-1.679 1.678 4.04 4.04 0 0 0 5.707 0 1.187 1.187 0 1 0-1.679-1.678z" transform="translate(-24.125 -22.504)"/>
                <path id="Caminho_1071" data-name="Caminho 1071" class="cls-3" d="M73.366 60.522a8.039 8.039 0 0 0-7.992-7.262h-.4a9.112 9.112 0 0 0-8.617-6.183h-.827a16.177 16.177 0 0 0-1.919-6.354 3.734 3.734 0 0 0 1.657-4.5 5.943 5.943 0 0 0 3.783-5.523v-1.767a5.908 5.908 0 0 0-1.441-3.87 21.724 21.724 0 0 0-4.556-16.948A1.187 1.187 0 0 0 51.206 9.6a19.17 19.17 0 0 1 4.285 12.155c0 .571-.028 1.138-.078 1.7a5.9 5.9 0 0 0-2.3-.462h-.809v-3.625a5.941 5.941 0 0 0-5.934-5.934H40.7a3.554 3.554 0 0 0-3.144 1.889L36.4 17.5a3.554 3.554 0 0 1-3.144 1.889h-9.793a3.565 3.565 0 0 0-3.563 3.557V23h-.809a5.9 5.9 0 0 0-2.3.462 19.266 19.266 0 0 1-.078-1.7 19.386 19.386 0 0 1 30.7-15.749A1.187 1.187 0 0 0 48.8 4.086a21.753 21.753 0 0 0-34.2 20.977 5.908 5.908 0 0 0-1.441 3.87V30.7a5.941 5.941 0 0 0 5.934 5.934h1.8a14.543 14.543 0 0 0 4.076 5.721l-2.634 4.722h-6.49a9.11 9.11 0 0 0-9.1 9.1v22.077a2.773 2.773 0 0 0 2.769 2.769h7.359a1.187 1.187 0 1 0 0-2.374H9.519a.4.4 0 0 1-.4-.4V56.177a6.733 6.733 0 0 1 6.726-6.726h5.166l-1.633 2.928a1.981 1.981 0 0 0 .35 2.384L24 58.9l-3.733 3.435a1.974 1.974 0 0 0-.46 2.277l6.407 14.038h-3.8a1.187 1.187 0 0 0 0 2.374h47.4a1.98 1.98 0 0 0 1.978-1.978v-.32a6.809 6.809 0 0 0-2.12-4.94 9.189 9.189 0 0 0 3.136-4.12h.263a4.576 4.576 0 0 0 .3-9.143zm-7.992-4.888a5.66 5.66 0 0 1 5.049 3.112H65.3a8.765 8.765 0 0 1-6.682-3.1q.141-.007.285-.007zm-9.013-6.183a6.731 6.731 0 0 1 6.057 3.809H58.9a8.039 8.039 0 0 0-7.992 7.262 4.567 4.567 0 0 0-.8.125l-1.9-1.744 4.266-4.14a1.981 1.981 0 0 0 .35-2.383L51.2 49.451h5.166zm1.086 8.419a8.731 8.731 0 0 1-3.594.872 5.693 5.693 0 0 1 2.309-2.4 11.136 11.136 0 0 0 1.281 1.526zm-6.535 9.4a2.2 2.2 0 0 1-.041-4.356v3.506c0 .286.015.569.041.849zm-7.95-22.37v13.273l-4.1-3.825 3.529-9.248.571-.2zm9.857-8.263a1.365 1.365 0 0 1-1.07 2.215h-1.534a14.446 14.446 0 0 0 1.1-2.215zm-4.4 4.589h2.714a12.655 12.655 0 0 1 2.02 5.854h-3.28l-2.634-4.722a14.623 14.623 0 0 0 1.18-1.132zm-3.081 2.6 5.272 9.45-4.145 4.022-1.127-1.037v-12.44zm7.781-18.448a3.565 3.565 0 0 1 3.561 3.561V30.7a3.565 3.565 0 0 1-3.561 3.561h-1.1a14.492 14.492 0 0 0 .292-2.9v-5.988zm-34.026 8.883a3.565 3.565 0 0 1-3.56-3.561v-1.767a3.565 3.565 0 0 1 3.561-3.561h.806v5.986a14.481 14.481 0 0 0 .292 2.9zm3.183-2.9v-8.415a1.188 1.188 0 0 1 1.187-1.187h9.789a5.923 5.923 0 0 0 5.239-3.148l1.156-2.174a1.184 1.184 0 0 1 1.048-.63h5.677a3.565 3.565 0 0 1 3.561 3.561v11.991a12.12 12.12 0 0 1-12.105 12.106h-3.446a12.12 12.12 0 0 1-12.106-12.106zM29.819 45.1l3.531 9.246-4.1 3.825V44.9q.283.107.571.2zm-2.945 29.281L22.083 63.89l4.791-4.409zm0-18.125-1.127 1.037-4.147-4.022 5.272-9.45zm8.044 22.394h-5.67V61.419l5.016-4.678.654 1.713zM32.6 45.729a14.544 14.544 0 0 0 1.783.11h3.445a14.544 14.544 0 0 0 1.783-.11l-3.506 9.18zm11.55 22.08A1.187 1.187 0 0 0 42.962 69v9.65h-5.67v-20.2l.654-1.713 5.016 4.678v2.039a1.187 1.187 0 1 0 2.374 0v-3.973l2.609 2.4a4.564 4.564 0 0 0 .118 6.528l-2.726 5.97V69a1.187 1.187 0 0 0-1.188-1.19zm8.337 10.84H46l4.159-9.108a4.573 4.573 0 0 0 1.05.123h.263a9.189 9.189 0 0 0 3.136 4.12 6.809 6.809 0 0 0-2.118 4.865zm2.372 0A4.456 4.456 0 0 1 56.865 75a9.1 9.1 0 0 0 3.15.56h4.243a9.1 9.1 0 0 0 3.15-.56 4.456 4.456 0 0 1 2.007 3.645zm16.171-12.23a6.778 6.778 0 0 1-6.771 6.771h-4.244a6.778 6.778 0 0 1-6.771-6.771v-5.3h.374a11.1 11.1 0 0 0 5.848-1.654 11.112 11.112 0 0 0 5.834 1.654h5.3c.141 0 .284 0 .426-.009v.179zm2.333.85a9.18 9.18 0 0 0 .041-.85v-3.506a2.2 2.2 0 0 1-.041 4.356z" transform="translate(-6.75)"/>
            </g>
        </g>
    </g>
</svg>
