<svg xmlns="http://www.w3.org/2000/svg" width="1440" height="718">
    <defs>
        <clipPath id="clip-path">
            <rect id="Retângulo_467" data-name="Retângulo 467" class="cls-1" width="80" height="82" rx="10" transform="translate(.169 -.438)"/>
        </clipPath>
        <clipPath id="clip-path-2">
            <rect id="Retângulo_468" data-name="Retângulo 468" class="cls-1" width="80" height="82" rx="10" transform="translate(.169 .082)"/>
        </clipPath>
        <clipPath id="clip-path-3">
            <rect id="Retângulo_469" data-name="Retângulo 469" class="cls-1" width="81" height="82" rx="10" transform="translate(.203 -.438)"/>
        </clipPath>
        <clipPath id="clip-path-4">
            <rect id="Retângulo_470" data-name="Retângulo 470" class="cls-1" width="81" height="82" rx="10" transform="translate(.203 .082)"/>
        </clipPath>
        <clipPath id="clip-path-5">
            <rect id="Retângulo_471" data-name="Retângulo 471" class="cls-1" width="81" height="82" rx="10" transform="translate(.238 -.438)"/>
        </clipPath>
        <clipPath id="clip-path-6">
            <rect id="Retângulo_472" data-name="Retângulo 472" class="cls-1" width="81" height="82" rx="10" transform="translate(.238 .082)"/>
        </clipPath>
        <clipPath id="clip-path-7">
            <rect id="Retângulo_473" data-name="Retângulo 473" class="cls-1" width="81" height="82" rx="10" transform="translate(.272 -.438)"/>
        </clipPath>
        <clipPath id="clip-path-8">
            <rect id="Retângulo_474" data-name="Retângulo 474" class="cls-1" width="81" height="82" rx="10" transform="translate(.272 .082)"/>
        </clipPath>
        <filter id="Retângulo_465" x="98" y="183" width="312" height="248" filterUnits="userSpaceOnUse">
            <feOffset dx="2" dy="3"/>
            <feGaussianBlur stdDeviation="3" result="blur"/>
            <feFlood flood-opacity=".161"/>
            <feComposite operator="in" in2="blur"/>
            <feComposite in="SourceGraphic"/>
        </filter>
        <filter id="Retângulo_465-2" x="98" y="429" width="312" height="248" filterUnits="userSpaceOnUse">
            <feOffset dx="2" dy="3"/>
            <feGaussianBlur stdDeviation="3" result="blur-2"/>
            <feFlood flood-opacity=".161"/>
            <feComposite operator="in" in2="blur-2"/>
            <feComposite in="SourceGraphic"/>
        </filter>
        <filter id="Retângulo_465-3" x="410" y="183" width="312" height="248" filterUnits="userSpaceOnUse">
            <feOffset dx="2" dy="3"/>
            <feGaussianBlur stdDeviation="3" result="blur-3"/>
            <feFlood flood-opacity=".161"/>
            <feComposite operator="in" in2="blur-3"/>
            <feComposite in="SourceGraphic"/>
        </filter>
        <filter id="Retângulo_465-4" x="410" y="429" width="312" height="248" filterUnits="userSpaceOnUse">
            <feOffset dx="2" dy="3"/>
            <feGaussianBlur stdDeviation="3" result="blur-4"/>
            <feFlood flood-opacity=".161"/>
            <feComposite operator="in" in2="blur-4"/>
            <feComposite in="SourceGraphic"/>
        </filter>
        <filter id="Retângulo_465-5" x="722" y="183" width="313" height="248" filterUnits="userSpaceOnUse">
            <feOffset dx="2" dy="3"/>
            <feGaussianBlur stdDeviation="3" result="blur-5"/>
            <feFlood flood-opacity=".161"/>
            <feComposite operator="in" in2="blur-5"/>
            <feComposite in="SourceGraphic"/>
        </filter>
        <filter id="Retângulo_465-6" x="722" y="429" width="313" height="248" filterUnits="userSpaceOnUse">
            <feOffset dx="2" dy="3"/>
            <feGaussianBlur stdDeviation="3" result="blur-6"/>
            <feFlood flood-opacity=".161"/>
            <feComposite operator="in" in2="blur-6"/>
            <feComposite in="SourceGraphic"/>
        </filter>
        <filter id="Retângulo_465-7" x="1034" y="183" width="313" height="248" filterUnits="userSpaceOnUse">
            <feOffset dx="2" dy="3"/>
            <feGaussianBlur stdDeviation="3" result="blur-7"/>
            <feFlood flood-opacity=".161"/>
            <feComposite operator="in" in2="blur-7"/>
            <feComposite in="SourceGraphic"/>
        </filter>
        <filter id="Retângulo_465-8" x="1034" y="429" width="313" height="248" filterUnits="userSpaceOnUse">
            <feOffset dx="2" dy="3"/>
            <feGaussianBlur stdDeviation="3" result="blur-8"/>
            <feFlood flood-opacity=".161"/>
            <feComposite operator="in" in2="blur-8"/>
            <feComposite in="SourceGraphic"/>
        </filter>
        <style>
            .cls-1,.cls-5{fill:#fff}.cls-1{stroke:#707070}.cls-6{fill:#1a4e60}.cls-10{font-size:14px;fill:#373737}.cls-9{fill:#373737;font-family:Poppins-Medium,Poppins;font-weight:500}.cls-10{font-family:Poppins-Regular,Poppins}.cls-9{font-size:20px}
        </style>
    </defs>
    <g id="Grupo_338" data-name="Grupo 338" transform="translate(0 -1753)">
        <g id="Grupo_311" data-name="Grupo 311" transform="translate(0 1753)">
            <path id="Retângulo_464" data-name="Retângulo 464" style="fill:#fafafa" d="M0 0h1440v718H0z"/>
            <g id="Grupo_309" data-name="Grupo 309" transform="translate(551 65)">
                <text id="Buscando_por_um_profissional_em_específico_" data-name="Buscando por um profissional em específico?" transform="translate(167 26)" style="font-size:25px;font-family:Poppins-SemiBold,Poppins;font-weight:600;fill:#1a4e60"><tspan x="-287.912" y="0">Buscando por um profissional em específico?</tspan></text>
            </g>
            <g id="Grupo_337" data-name="Grupo 337" transform="translate(283 113)">
                <text id="Use_nossas_categorias_de_especialidades." data-name="Use nossas categorias de especialidades." style="font-size:14px;fill:gray;font-family:Poppins-Light,Poppins;font-weight:300"><tspan x="292.317" y="15">Use nossas categorias de especialidades.</tspan></text>
            </g>
        </g>
        <g id="Grupo_336" data-name="Grupo 336" transform="translate(105.366 1942.316)">
            <g id="Grupo_314" data-name="Grupo 314">
                <g transform="translate(-105.37 -189.32)" style="filter:url(#Retângulo_465)">
                    <rect id="Retângulo_465-9" data-name="Retângulo 465" class="cls-5" width="294" height="230" rx="5" transform="translate(105 189)"/>
                </g>
                <g id="Grupo_313" data-name="Grupo 313" transform="translate(71.968 34.461)">
                    <rect id="Retângulo_466" data-name="Retângulo 466" class="cls-6" width="80" height="82" rx="10" transform="translate(36.665 .223)"/>
                    <g id="Grupo_312" data-name="Grupo 312" transform="translate(0 98.765)">
                        <text id="Cardiologista" transform="translate(64.665 20.458)" style="font-family:Poppins-Medium,Poppins;font-weight:500;font-size:19px;fill:#373737"><tspan x="-64.714" y="0">Cardiologista</tspan></text>
                        <text id="_14_Profissionais" data-name="14 Profissionais" transform="translate(64.665 40.458)" style="font-family:Poppins-Regular,Poppins;font-size:12px;fill:#373737"><tspan x="-43.896" y="0">14 Profissionais</tspan></text>
                    </g>
                </g>
            </g>
            <g id="Grupo_318" data-name="Grupo 318" transform="translate(0 265.481)">
                <g transform="translate(-105.37 -454.8)" style="filter:url(#Retângulo_465-2)">
                    <rect id="Retângulo_465-10" data-name="Retângulo 465" class="cls-5" width="294" height="230" rx="5" transform="translate(105 435)"/>
                </g>
                <g id="Grupo_313-2" data-name="Grupo 313" transform="translate(56.815 35.122)">
                    <rect id="Retângulo_466-2" data-name="Retângulo 466" class="cls-6" width="80" height="82" rx="10" transform="translate(51.819 .082)"/>
                    <g id="Grupo_312-2" data-name="Grupo 312" transform="translate(0 94.003)">
                        <text id="Ginecologista" class="cls-9" transform="translate(83.819 25.079)"><tspan x="-69.69" y="0">Ginecologista</tspan></text>
                        <text id="_14_Profissionais-2" data-name="14 Profissionais" class="cls-10" transform="translate(86.819 47.079)"><tspan x="-51.212" y="0">14 Profissionais</tspan></text>
                    </g>
                </g>
            </g>
            <g id="Grupo_315" data-name="Grupo 315" transform="translate(311.965)">
                <g transform="translate(-417.33 -189.32)" style="filter:url(#Retângulo_465-3)">
                    <rect id="Retângulo_465-11" data-name="Retângulo 465" class="cls-5" width="294" height="230" rx="5" transform="translate(417 189)"/>
                </g>
                <g id="Grupo_313-3" data-name="Grupo 313" transform="translate(69.212 35.122)">
                    <rect id="Retângulo_466-3" data-name="Retângulo 466" class="cls-6" width="81" height="82" rx="10" transform="translate(39.457 -.438)"/>
                    <g id="Grupo_312-3" data-name="Grupo 312" transform="translate(0 94.003)">
                        <text id="Ortopedista" class="cls-9" transform="translate(72.457 24.56)"><tspan x="-60.26" y="0">Ortopedista</tspan></text>
                        <text id="_14_Profissionais-3" data-name="14 Profissionais" class="cls-10" transform="translate(74.457 47.56)"><tspan x="-51.212" y="0">14 Profissionais</tspan></text>
                    </g>
                </g>
            </g>
            <g id="Grupo_319" data-name="Grupo 319" transform="translate(311.965 265.481)">
                <g transform="translate(-417.33 -454.8)" style="filter:url(#Retângulo_465-4)">
                    <rect id="Retângulo_465-12" data-name="Retângulo 465" class="cls-5" width="294" height="230" rx="5" transform="translate(417 435)"/>
                </g>
                <g id="Grupo_313-4" data-name="Grupo 313" transform="translate(80.574 35.122)">
                    <rect id="Retângulo_466-4" data-name="Retângulo 466" class="cls-6" width="81" height="82" rx="10" transform="translate(28.095 .082)"/>
                    <g id="Grupo_312-4" data-name="Grupo 312" transform="translate(0 94.003)">
                        <text id="Urologista" class="cls-9" transform="translate(61.095 25.079)"><tspan x="-51.2" y="0">Urologista</tspan></text>
                        <text id="_14_Profissionais-4" data-name="14 Profissionais" class="cls-10" transform="translate(63.095 47.079)"><tspan x="-51.212" y="0">14 Profissionais</tspan></text>
                    </g>
                </g>
            </g>
            <g id="Grupo_316" data-name="Grupo 316" transform="translate(623.931)">
                <g transform="translate(-729.3 -189.32)" style="filter:url(#Retângulo_465-5)">
                    <rect id="Retângulo_465-13" data-name="Retângulo 465" class="cls-5" width="295" height="230" rx="5" transform="translate(729 189)"/>
                </g>
                <g id="Grupo_313-5" data-name="Grupo 313" transform="translate(52.682 35.122)">
                    <rect id="Retângulo_466-5" data-name="Retângulo 466" class="cls-6" width="81" height="82" rx="10" transform="translate(56.021 -.438)"/>
                    <g id="Grupo_312-5" data-name="Grupo 312" transform="translate(0 94.003)">
                        <text id="Fisioterapeuta" class="cls-9" transform="translate(87.021 24.56)"><tspan x="-72.74" y="0">Fisioterapeuta</tspan></text>
                        <text id="_14_Profissionais-5" data-name="14 Profissionais" class="cls-10" transform="translate(91.021 47.56)"><tspan x="-51.212" y="0">14 Profissionais</tspan></text>
                    </g>
                </g>
            </g>
            <g id="Grupo_320" data-name="Grupo 320" transform="translate(623.931 265.481)">
                <g transform="translate(-729.3 -454.8)" style="filter:url(#Retângulo_465-6)">
                    <rect id="Retângulo_465-14" data-name="Retângulo 465" class="cls-5" width="295" height="230" rx="5" transform="translate(729 435)"/>
                </g>
                <g id="Grupo_313-6" data-name="Grupo 313" transform="translate(64.046 35.122)">
                    <rect id="Retângulo_466-6" data-name="Retângulo 466" class="cls-6" width="81" height="82" rx="10" transform="translate(44.657 .082)"/>
                    <g id="Grupo_312-6" data-name="Grupo 312" transform="translate(0 94.003)">
                        <text id="Neurologista" class="cls-9" transform="translate(76.657 25.079)"><tspan x="-64.25" y="0">Neurologista</tspan></text>
                        <text id="_14_Profissionais-6" data-name="14 Profissionais" class="cls-10" transform="translate(79.657 47.079)"><tspan x="-51.212" y="0">14 Profissionais</tspan></text>
                    </g>
                </g>
            </g>
            <g id="Grupo_317" data-name="Grupo 317" transform="translate(935.897)">
                <g transform="translate(-1041.26 -189.32)" style="filter:url(#Retângulo_465-7)">
                    <rect id="Retângulo_465-15" data-name="Retângulo 465" class="cls-5" width="295" height="230" rx="5" transform="translate(1041 189)"/>
                </g>
                <g id="Grupo_313-7" data-name="Grupo 313" transform="translate(88.838 35.122)">
                    <rect id="Retângulo_466-7" data-name="Retângulo 466" class="cls-6" width="81" height="82" rx="10" transform="translate(19.899 -.438)"/>
                    <g id="Grupo_312-7" data-name="Grupo 312" transform="translate(0 94.003)">
                        <text id="Pediatra" class="cls-9" transform="translate(54.899 25.56)"><tspan x="-42.67" y="0">Pediatra</tspan></text>
                        <text id="_14_Profissionais-7" data-name="14 Profissionais" class="cls-10" transform="translate(54.899 47.56)"><tspan x="-51.212" y="0">14 Profissionais</tspan></text>
                    </g>
                </g>
            </g>
            <g id="Grupo_321" data-name="Grupo 321" transform="translate(935.897 265.481)">
                <g transform="translate(-1041.26 -454.8)" style="filter:url(#Retângulo_465-8)">
                    <rect id="Retângulo_465-16" data-name="Retângulo 465" class="cls-5" width="295" height="230" rx="5" transform="translate(1041 435)"/>
                </g>
                <g id="Grupo_313-8" data-name="Grupo 313" transform="translate(83.672 35.122)">
                    <rect id="Retângulo_466-8" data-name="Retângulo 466" class="cls-6" width="81" height="82" rx="10" transform="translate(25.065 .082)"/>
                    <g id="Grupo_312-8" data-name="Grupo 312" transform="translate(0 94.003)">
                        <text id="Psicólogo" class="cls-9" transform="translate(58.064 25.079)"><tspan x="-48.37" y="0">Psicólogo</tspan></text>
                        <text id="_14_Profissionais-8" data-name="14 Profissionais" class="cls-10" transform="translate(60.064 47.079)"><tspan x="-51.212" y="0">14 Profissionais</tspan></text>
                    </g>
                </g>
            </g>
            <g id="Grupo_de_máscara_9" data-name="Grupo de máscara 9" transform="translate(108.465 35.122)" style="clip-path:url(#clip-path)">
                <g id="heart" transform="translate(11.534 .148)">
                    <path id="Caminho_1049" data-name="Caminho 1049" class="cls-5" d="M70.793 65.422v.011a1.563 1.563 0 1 0 0-.011zm0 0" transform="translate(-17.648 -15.783)"/>
                    <path id="Caminho_1050" data-name="Caminho 1050" class="cls-5" d="M57.511 54.251a1.582 1.582 0 1 0-3.125.495 29.968 29.968 0 0 1 .289 6.81 17.881 17.881 0 0 1-7.3 13.18l-1.07.781a12.159 12.159 0 0 1-9.965 2.015l-4.194-.99a39.362 39.362 0 0 1-20.817-12.663 22.792 22.792 0 0 1-4.25-6.884 1.573 1.573 0 0 0 .058-.674c-.009-.068-.788-6.9 8.851-11.291a22.326 22.326 0 0 0 10.78-10.374c7.247 1 9.742 3.04 9.927 3.2a1.484 1.484 0 0 0 1.457.413q.2-.045.392-.085A11.21 11.21 0 0 1 50.983 44.6a1.583 1.583 0 0 0 2.89-1.291 14.5 14.5 0 0 0-5.782-6.5.167.167 0 0 1 .006-.016 10.568 10.568 0 0 0 .48-3.159c0-.216-.009-.43-.021-.642h1.1a1.582 1.582 0 1 0 0-3.165h-1.792a10.578 10.578 0 0 0-1.676-2.877l.716-.716a1.583 1.583 0 0 0-2.238-2.238l-.828.828a10.511 10.511 0 0 0-4.355-1.655 12.09 12.09 0 0 1 8.208-2.357 1.582 1.582 0 0 0 1.636-1.581V13.2a1.582 1.582 0 0 0-1.452-1.577 38.178 38.178 0 0 0-7.073.217 15.987 15.987 0 0 0-6.937-7.185l1.12-1.672a1.582 1.582 0 0 0-2.63-1.761l-1.6 2.394a11.308 11.308 0 0 0-3.3-.128V1.582a1.582 1.582 0 0 0-3.165 0v2.707a13.572 13.572 0 0 0-4.176 2.727 17.12 17.12 0 0 0-2.585 3.111A3.6 3.6 0 0 0 14.32 8.15h-4.3a3.6 3.6 0 0 0-3.6 3.6v16.173a16.656 16.656 0 0 0-2.3 2.181C.66 34.061-.03 39.246 0 42.9a23.687 23.687 0 0 0 2.615 11.044c.239.639.453 1.255.661 1.853a27.207 27.207 0 0 0 5.642 10.132 42.545 42.545 0 0 0 22.5 13.694l4.193.99a15.324 15.324 0 0 0 12.559-2.539l1.07-.781a21.039 21.039 0 0 0 8.591-15.51 33.1 33.1 0 0 0-.321-7.532zM38.2 35.025a15.473 15.473 0 0 0-3.425-1.71 17.629 17.629 0 0 1 2.059-7 7.552 7.552 0 0 1 1.171-.093 7.409 7.409 0 0 1 7.172 9.257 14.21 14.21 0 0 0-6.977-.458zm7.963-20.3v2.928a14.165 14.165 0 0 0-9.631 3.9c-3.478 3.4-4.527 8.13-4.841 10.816a44.075 44.075 0 0 0-5.439-.972q-.721-.669-1.437-1.263c0-.038.006-.076.006-.115A13.218 13.218 0 0 1 28.9 19.85c5.151-4.751 13.834-5.157 17.261-5.124zm-17.5-8.138a8.313 8.313 0 0 1 2.337.34 11.608 11.608 0 0 1 6.485 5.464 22.85 22.85 0 0 0-10.724 5.123 15.732 15.732 0 0 0-5.009 10.4 18.708 18.708 0 0 0-3.84-1.85v-9.151a1.731 1.731 0 0 0 .072-.2c1.745-6.058 6.036-10.129 10.678-10.129zm-19.07 5.159a.432.432 0 0 1 .431-.431h4.3a.432.432 0 0 1 .431.431v13.636a11.954 11.954 0 0 0-1.579-.035 11.177 11.177 0 0 0-3.579.755zM6.509 32.191a9.615 9.615 0 0 1 6.8-3.682c3.148-.141 6.771 1.57 10.507 4.955a19.392 19.392 0 0 1-9.142 8.685c-6.056 2.756-8.641 6.5-9.744 9.148l-.054.134C2.879 47 1.8 37.559 6.509 32.191zm0 0"/>
                    <path id="Caminho_1051" data-name="Caminho 1051" class="cls-5" d="M25.888 84.711a1.582 1.582 0 1 0-2.021 2.436 36.463 36.463 0 0 0 14.826 7.385 1.583 1.583 0 0 0 .728-3.08 33.29 33.29 0 0 1-13.533-6.74zm0 0" transform="translate(-5.819 -21.068)"/>
                    <path id="Caminho_1052" data-name="Caminho 1052" class="cls-5" d="M18.352 79.319a1.595 1.595 0 1 0 2.268.2l-.032-.038a1.587 1.587 0 0 0-2.236-.164zm0 0" transform="translate(-4.447 -19.716)"/>
                </g>
            </g>
            <g id="Grupo_de_máscara_13" data-name="Grupo de máscara 13" transform="translate(108.465 300.603)" style="clip-path:url(#clip-path-2)">
                <g id="ginecologista-2" data-name="ginecologista" transform="translate(-.019 3.439)">
                    <g id="Grupo_324" data-name="Grupo 324">
                        <g id="Grupo_323" data-name="Grupo 323">
                            <path id="Caminho_1072" data-name="Caminho 1072" class="cls-5" d="M60.863 38.537a20.15 20.15 0 0 0-17.116 9.451 20.94 20.94 0 0 0-1.865 3.793h-8.877v-2.296a16.7 16.7 0 0 0 5.355-3.665 17.539 17.539 0 0 0 4.685-8.287 4.484 4.484 0 0 0 3.984-4.574 4.726 4.726 0 0 0-1.259-3.219 3.953 3.953 0 0 0-2.263-1.275v-1.9a8.841 8.841 0 0 0 10.885-3.586A8.8 8.8 0 0 0 52.4 11.6a7.09 7.09 0 0 0-.972-.685 8.805 8.805 0 0 0-10.789 1.355 17.753 17.753 0 0 0-27.4-2.821 17.482 17.482 0 0 0-2.183 2.661 1.2 1.2 0 0 0-.367.59 17.31 17.31 0 0 0-2.279 5.944h.032a11.822 11.822 0 0 0-.319 3.363v6.454a4.045 4.045 0 0 0-2.279 1.275 4.726 4.726 0 0 0-1.254 3.223 4.509 4.509 0 0 0 4 4.574 17.492 17.492 0 0 0 10.694 12.223v2.024h-6.821A12.5 12.5 0 0 0 0 64.339v12.653a1.186 1.186 0 0 0 1.2 1.243h54.579a17.458 17.458 0 0 0 5.052.653 20.176 20.176 0 0 0 .032-40.352zM7.14 32.959a2.14 2.14 0 0 1 .606-1.482 1.466 1.466 0 0 1 .4-.3v2.088c0 .51-.016 1.02.032 1.514a2.141 2.141 0 0 1-1.038-1.82zM37.93 54.33h3.219a20.355 20.355 0 0 0-.319 6.948 5.232 5.232 0 0 0-.494-.542 4.846 4.846 0 0 0-2.406-1.355zm.637 8.208a2.609 2.609 0 0 1 .653 1.084 2.541 2.541 0 0 1 .112.765 2.614 2.614 0 1 1-2.6-2.614 2.555 2.555 0 0 1 1.835.765zm4.956-29.292v-2.072a1.4 1.4 0 0 1 .382.3 2.243 2.243 0 0 1 .574 1.482 2.076 2.076 0 0 1-1 1.817c.045-.507.045-1.002.045-1.527zm9.594-14.232a6.329 6.329 0 0 1-.861 2.63 6.255 6.255 0 0 1-7 2.789zm-1.371-4.526a6.005 6.005 0 0 1 .956 1.705l-9.18 6.3v-.494a16.408 16.408 0 0 0-.064-1.769zm-2.087-1.658L43 17.484a16.921 16.921 0 0 0-1.02-2.853 6.252 6.252 0 0 1 7.679-1.801zm-34.583-1.577a15.143 15.143 0 0 1 10.758-4.447q.622 0 1.243.048a17.514 17.514 0 0 1-12.686 5.132 9.83 9.83 0 0 1 .685-.733zm-2.438 3.187q1.028.1 2.056.1a20.242 20.242 0 0 0 15.379-7.128 14.684 14.684 0 0 1 2.837 1.147c-3.522 5.434-8.319 8.638-14.3 9.53a22.875 22.875 0 0 1-7.443-.159 14.6 14.6 0 0 1 1.471-3.49zm-1.9 5.992a25.111 25.111 0 0 0 4.638.43 23.651 23.651 0 0 0 3.522-.255A22.694 22.694 0 0 0 35.077 9.914a15.438 15.438 0 0 1 4.207 4.972 1.443 1.443 0 0 0 .207.414 14.954 14.954 0 0 1 1.355 4.367 16.153 16.153 0 0 1 .159 2.327v.781a13.894 13.894 0 0 1-4.446-6.423 1.278 1.278 0 0 0-1.052-.956 1.223 1.223 0 0 0-1.243.622c-6.247 10.741-19.905 8.829-23.571 8.08V22.01a13.047 13.047 0 0 1 .048-1.578zm.162 15.475a16.5 16.5 0 0 1-.207-2.661V26.68a34.95 34.95 0 0 0 6.307.573c5.689 0 13.116-1.434 18.009-7.857a15.262 15.262 0 0 0 5.96 6.439v7.411a15.126 15.126 0 0 1-15.156 15.2 14.737 14.737 0 0 1-4.781-.781A15.074 15.074 0 0 1 10.9 35.907zm13.659 39.779H2.566V64.339a9.954 9.954 0 0 1 9.913-10.009h1.084v5.164a6.5 6.5 0 0 0-3.108 1.706 6.372 6.372 0 0 0-1.833 4.478v7.06a1.3 1.3 0 0 0 1.211 1.355h2.024a1.275 1.275 0 1 0 0-2.55h-.685v-5.866a3.649 3.649 0 0 1 3.6-3.7h.112a3.718 3.718 0 0 1 3.777 3.7v5.865H17.4a1.275 1.275 0 0 0 0 2.55h2.534a1.349 1.349 0 0 0 1.275-1.355v-7.06a6.374 6.374 0 0 0-5.1-6.2V54.33H20l4.558 4.893zM21.85 52.561v-2.024a17.673 17.673 0 0 0 8.606-.159v2.151L25.945 56.9zm5.259 23.124v-16.43l5.164-4.925H35.4v5.052a5.182 5.182 0 1 0 6.4 5.976 20.066 20.066 0 0 0 4.462 7.3 16.891 16.891 0 0 0 3.7 3.028H27.109zm33.754.669a17.255 17.255 0 0 1-4.606-.622 17.659 17.659 0 0 1-12.271-22.167v-.016a17.625 17.625 0 1 1 16.877 22.806z" transform="translate(0 -4.259)"/>
                        </g>
                    </g>
                    <g id="Grupo_326" data-name="Grupo 326" transform="translate(43.824 44.828)">
                        <g id="Grupo_325" data-name="Grupo 325">
                            <path id="Caminho_1073" data-name="Caminho 1073" class="cls-5" d="M92.061 69.511a3.187 3.187 0 0 0-1.912-1.418 4.514 4.514 0 0 0-1.227-2.136 4.656 4.656 0 0 0-6.582.016.927.927 0 0 0-.287.271 6.394 6.394 0 0 0-4.319-2.215h-.048c-.159-.016-.319-.016-.51-.016h-3.985a5.181 5.181 0 0 0-.526.032h-.032a6.329 6.329 0 0 0-4.319 2.215 2.449 2.449 0 0 0-.271-.3 4.655 4.655 0 0 0-6.582 0 4.7 4.7 0 0 0-1.275 2.359 3.236 3.236 0 1 0 4.351 1.418 3.2 3.2 0 0 0-1.626-1.514 2.111 2.111 0 0 1 3.952.924 6.82 6.82 0 0 0 .335 4.175.9.9 0 0 0 .127.207l3.729 5.658v.413a3.831 3.831 0 0 0 1.61 3.14v.335c0 .4-.032.749-.032.765a1.259 1.259 0 0 0 1.168 1.368 1.282 1.282 0 0 0 1.355-1.02 1.282 1.282 0 0 0 1.259 1.084h.1a1.283 1.283 0 0 0 1.171-1.372s-.032-.382-.032-.8c0-.127-.016-.223-.016-.3a3.834 3.834 0 0 0 1.689-3.2v-.414l3.745-5.658c.048-.064.08-.143.127-.207a6.82 6.82 0 0 0 .335-4.175 2.109 2.109 0 0 1 3.6-1.387 1.924 1.924 0 0 1 .462.7 3.242 3.242 0 1 0 4.462 1.052zm-30.424 2.374a.7.7 0 1 1 .7-.7.707.707 0 0 1-.7.7zm19.236.351L77 78.1a1.222 1.222 0 0 0-.223.7v.8a1.336 1.336 0 0 1-.765 1.2 1.674 1.674 0 0 0-.877 1.371 1.776 1.776 0 0 0-.845-1.4 1.305 1.305 0 0 1-.7-1.163v-.8a1.222 1.222 0 0 0-.223-.7l-3.873-5.865a4.286 4.286 0 0 1 .335-3.761 3.874 3.874 0 0 1 3-1.9c.127 0 .255-.016.367-.016h4.367a4.073 4.073 0 0 1 2.98 1.9 4.315 4.315 0 0 1 .33 3.77zm8.4-.335a.707.707 0 0 1-.7-.7.718.718 0 0 1 .7-.7.7.7 0 1 1 0 1.4z" transform="translate(-58.415 -64.012)"/>
                        </g>
                    </g>
                    <g id="Grupo_328" data-name="Grupo 328" transform="translate(14.678 26.867)">
                        <g id="Grupo_327" data-name="Grupo 327">
                            <path id="Caminho_1074" data-name="Caminho 1074" class="cls-5" d="M26.418 40.071a1.279 1.279 0 0 0-1.275 1.275v.7a1.514 1.514 0 0 1-3.028 0v-.7a1.275 1.275 0 1 0-2.55 0v.7a4.109 4.109 0 0 0 4.064 4.08 4.074 4.074 0 0 0 4.064-4.08v-.7a1.279 1.279 0 0 0-1.275-1.275z" transform="translate(-19.565 -40.071)"/>
                        </g>
                    </g>
                    <g id="Grupo_330" data-name="Grupo 330" transform="translate(28.702 26.867)">
                        <g id="Grupo_329" data-name="Grupo 329">
                            <path id="Caminho_1075" data-name="Caminho 1075" class="cls-5" d="M45.271 40.071A1.279 1.279 0 0 0 44 41.346v.7a1.547 1.547 0 0 1-1.562 1.53 1.66 1.66 0 0 1-1.132-.446 1.565 1.565 0 0 1-.494-1.084v-.7a1.275 1.275 0 1 0-2.55 0v.7a4.1 4.1 0 0 0 1.238 2.886 4.189 4.189 0 0 0 2.932 1.2 4.1 4.1 0 0 0 4.112-4.08v-.7a1.279 1.279 0 0 0-1.273-1.281z" transform="translate(-38.259 -40.071)"/>
                        </g>
                    </g>
                </g>
            </g>
            <g id="Grupo_de_máscara_10" data-name="Grupo de máscara 10" transform="translate(420.431 35.122)" style="clip-path:url(#clip-path-3)">
                <g id="spinal-column" transform="translate(1.961 .148)">
                    <path id="Caminho_1053" data-name="Caminho 1053" class="cls-5" d="M35.754 0a1.194 1.194 0 0 0-1.194 1.194v1.69a11.234 11.234 0 0 1-3.469 8.1 11.237 11.237 0 0 1-1.02.858 1.194 1.194 0 1 0 1.43 1.913 13.629 13.629 0 0 0 1.237-1.042 13.633 13.633 0 0 0 4.21-9.827V1.194A1.194 1.194 0 0 0 35.754 0z" transform="translate(-9.248)"/>
                    <path id="Caminho_1054" data-name="Caminho 1054" class="cls-5" d="M20.531 19.312a1.194 1.194 0 0 0-1.569-.626l-4.525 1.942A19.733 19.733 0 0 0 4.332 47.087v18.1a1.194 1.194 0 0 0 2.389 0V46.818A1.194 1.194 0 0 0 6.6 46.3a17.344 17.344 0 0 1 8.78-23.477l4.52-1.942a1.194 1.194 0 0 0 .631-1.569z" transform="translate(-2.474 -4.643)"/>
                    <path id="Caminho_1055" data-name="Caminho 1055" class="cls-5" d="M26.481 67.356a13.917 13.917 0 0 1-1.589-6.445V44.2a1.194 1.194 0 0 0-2.389 0v19.552a6.707 6.707 0 0 1-.859 3.281l-.593 1.055a1.194 1.194 0 1 0 2.082 1.171l.593-1.055q.14-.249.264-.506c.119.259.244.516.376.769l.725 1.381a.31.31 0 0 1 .035.164l-.573 9.055a1.194 1.194 0 0 0 1.116 1.267h.077a1.2 1.2 0 0 0 1.191-1.119l.573-9.055a2.7 2.7 0 0 0-.3-1.426z" transform="translate(-7.076 -10.743)"/>
                    <path id="Caminho_1056" data-name="Caminho 1056" class="cls-5" d="M26.474 96.368a1.2 1.2 0 0 0-1.267 1.116l-.4 6.34a1.194 1.194 0 0 0 1.116 1.267H26a1.2 1.2 0 0 0 1.191-1.119l.4-6.34a1.194 1.194 0 0 0-1.117-1.264z" transform="translate(-8.051 -24.07)"/>
                    <path id="Caminho_1057" data-name="Caminho 1057" class="cls-5" d="M93.743 28.33a1.2 1.2 0 0 0 1.106-1.644 19.61 19.61 0 0 0-10.495-10.7l-6.577-2.823a11.151 11.151 0 0 1-3.3-2.18 11.234 11.234 0 0 1-3.469-8.1V1.194a1.194 1.194 0 1 0-2.389 0v1.69a13.633 13.633 0 0 0 4.21 9.827 13.529 13.529 0 0 0 4.008 2.646l6.577 2.823a17.237 17.237 0 0 1 9.224 9.405 1.194 1.194 0 0 0 1.105.745z" transform="translate(-18.995)"/>
                    <path id="Caminho_1058" data-name="Caminho 1058" class="cls-5" d="M104.011 42.434a1.194 1.194 0 1 0-2.376.247A17.3 17.3 0 0 1 100 51.988a1.194 1.194 0 0 0-.119.519v18.374a1.194 1.194 0 0 0 2.389 0v-18.1a19.679 19.679 0 0 0 1.741-10.347z" transform="translate(-26.805 -10.332)"/>
                    <path id="Caminho_1059" data-name="Caminho 1059" class="cls-5" d="M84.167 67.033a6.707 6.707 0 0 1-.859-3.281V44.2a1.194 1.194 0 0 0-2.389 0v16.712a13.917 13.917 0 0 1-1.589 6.445l-.725 1.381a2.7 2.7 0 0 0-.3 1.426l1.3 20.485a1.194 1.194 0 0 0 1.191 1.119h.077a1.194 1.194 0 0 0 1.109-1.268l-1.3-20.484a.313.313 0 0 1 .035-.165l.725-1.381c.133-.253.257-.51.376-.769q.124.257.264.506l.593 1.055a1.194 1.194 0 1 0 2.082-1.171z" transform="translate(-21.413 -10.743)"/>
                    <path id="Caminho_1060" data-name="Caminho 1060" class="cls-5" d="m57.592 25.847-.674-2.779a1.824 1.824 0 0 0-1.778-1.4h-9.3a1.824 1.824 0 0 0-1.778 1.4l-.674 2.78a3.6 3.6 0 0 0-3.147 3.566v.171a3.6 3.6 0 0 0 3.575 3.593l-.427 1.763a3.6 3.6 0 0 0-3.147 3.566v.17a3.6 3.6 0 0 0 3.575 3.594l-.427 1.763a3.6 3.6 0 0 0-3.152 3.566v.171a3.6 3.6 0 0 0 3.575 3.594l-.427 1.763a3.6 3.6 0 0 0-3.147 3.566v.171a3.6 3.6 0 0 0 3.575 3.594l-.427 1.763a3.6 3.6 0 0 0-3.147 3.566v.17a3.6 3.6 0 0 0 3.575 3.594l-.427 1.763a3.6 3.6 0 0 0-3.147 3.566v.171a3.6 3.6 0 0 0 3.594 3.594h.937l3.052 2.236a4.526 4.526 0 0 0 1.474.712v3.647a1.194 1.194 0 0 0 2.389 0v-3.647a4.524 4.524 0 0 0 1.474-.712l3.052-2.236h.937a3.6 3.6 0 0 0 3.594-3.594v-.171a3.6 3.6 0 0 0-3.147-3.566l-.427-1.763a3.6 3.6 0 0 0 3.575-3.594v-.17a3.6 3.6 0 0 0-3.147-3.566l-.427-1.763a3.6 3.6 0 0 0 3.575-3.594v-.171a3.6 3.6 0 0 0-3.147-3.566l-.427-1.763a3.6 3.6 0 0 0 3.575-3.594V47.6a3.6 3.6 0 0 0-3.147-3.566l-.427-1.763a3.6 3.6 0 0 0 3.575-3.594v-.17a3.6 3.6 0 0 0-3.147-3.566l-.427-1.763a3.6 3.6 0 0 0 3.575-3.593v-.171a3.6 3.6 0 0 0-3.147-3.567zm.759 49.035v.171a1.207 1.207 0 0 1-1.205 1.205h-1.12a1.817 1.817 0 0 0-1.081.354l-3.2 2.344c-.02.015-.041.028-.062.042v-2.641a1.194 1.194 0 0 0-2.389 0V79c-.021-.014-.042-.027-.062-.042l-3.2-2.344a1.817 1.817 0 0 0-1.081-.354h-1.12a1.207 1.207 0 0 1-1.205-1.205v-.171a1.207 1.207 0 0 1 1.205-1.205 1.824 1.824 0 0 0 1.778-1.4l.434-1.791 1.777 1.3a4.5 4.5 0 0 0 5.336 0l1.777-1.3.434 1.791a1.824 1.824 0 0 0 1.778 1.4 1.207 1.207 0 0 1 1.205 1.206zm0-9.094v.17a1.207 1.207 0 0 1-1.205 1.205h-1.12a1.818 1.818 0 0 0-1.081.354l-3.2 2.344c-.02.015-.041.028-.062.042v-2.64a1.194 1.194 0 0 0-2.389 0V69.9c-.021-.014-.042-.027-.062-.042l-3.2-2.344a1.817 1.817 0 0 0-1.081-.354h-1.12a1.207 1.207 0 0 1-1.205-1.205v-.17a1.207 1.207 0 0 1 1.205-1.205 1.824 1.824 0 0 0 1.778-1.4l.434-1.791 1.777 1.3a4.5 4.5 0 0 0 5.336 0l1.777-1.3.434 1.791a1.824 1.824 0 0 0 1.778 1.4 1.207 1.207 0 0 1 1.206 1.206zm0-9.094v.171a1.207 1.207 0 0 1-1.205 1.205h-1.12a1.817 1.817 0 0 0-1.081.354l-3.2 2.344c-.02.015-.041.028-.062.042v-2.64a1.194 1.194 0 0 0-2.389 0v2.64c-.021-.014-.042-.027-.062-.042l-3.2-2.344a1.817 1.817 0 0 0-1.081-.354h-1.12a1.207 1.207 0 0 1-1.205-1.205v-.171a1.207 1.207 0 0 1 1.205-1.205 1.824 1.824 0 0 0 1.778-1.4l.434-1.791 1.777 1.3a4.5 4.5 0 0 0 5.336 0l1.777-1.3.434 1.791a1.824 1.824 0 0 0 1.778 1.4 1.207 1.207 0 0 1 1.205 1.205zm0-9.094v.171a1.207 1.207 0 0 1-1.205 1.205h-1.12a1.817 1.817 0 0 0-1.081.354l-3.2 2.344c-.02.015-.041.028-.062.042v-2.64a1.194 1.194 0 0 0-2.389 0v2.641c-.021-.014-.042-.027-.062-.042l-3.2-2.344a1.817 1.817 0 0 0-1.081-.354h-1.12a1.207 1.207 0 0 1-1.205-1.205V47.6a1.207 1.207 0 0 1 1.206-1.2 1.824 1.824 0 0 0 1.777-1.4l.434-1.791 1.777 1.3a4.5 4.5 0 0 0 5.336 0l1.777-1.3.434 1.791a1.824 1.824 0 0 0 1.778 1.4 1.207 1.207 0 0 1 1.206 1.2zm0-9.094v.17a1.207 1.207 0 0 1-1.205 1.205h-1.12a1.818 1.818 0 0 0-1.081.354l-3.2 2.344c-.02.015-.041.028-.062.042v-2.639a1.194 1.194 0 0 0-2.389 0v2.641c-.021-.014-.042-.027-.062-.042l-3.2-2.344a1.817 1.817 0 0 0-1.081-.354h-1.12a1.207 1.207 0 0 1-1.205-1.205v-.17a1.207 1.207 0 0 1 1.206-1.208 1.824 1.824 0 0 0 1.778-1.4l.434-1.791 1.777 1.3a4.5 4.5 0 0 0 5.336 0l1.777-1.3.434 1.791a1.824 1.824 0 0 0 1.778 1.4 1.207 1.207 0 0 1 1.205 1.206zm0-8.923a1.207 1.207 0 0 1-1.205 1.205h-1.12a1.818 1.818 0 0 0-1.081.354l-3.2 2.344c-.02.015-.041.028-.062.042v-2.64a1.194 1.194 0 1 0-2.389 0v2.641c-.021-.014-.042-.027-.062-.042l-3.2-2.344a1.817 1.817 0 0 0-1.081-.354h-1.12a1.207 1.207 0 0 1-1.205-1.205v-.171a1.207 1.207 0 0 1 1.205-1.205 1.824 1.824 0 0 0 1.778-1.4l.667-2.752H54.7l.667 2.752a1.824 1.824 0 0 0 1.778 1.4 1.207 1.207 0 0 1 1.205 1.205v.171z" transform="translate(-11.907 -5.413)"/>
                    <path id="Caminho_1061" data-name="Caminho 1061" class="cls-5" d="M53.5 16.58a1.194 1.194 0 0 0 1.2-1.195v-2.893a1.194 1.194 0 0 0-2.389 0v2.893A1.194 1.194 0 0 0 53.5 16.58z" transform="translate(-14.922 -2.822)"/>
                    <path id="Caminho_1062" data-name="Caminho 1062" class="cls-5" d="M53.5 5.282a1.194 1.194 0 0 0 1.2-1.194V1.194a1.194 1.194 0 0 0-2.389 0v2.894A1.194 1.194 0 0 0 53.5 5.282z" transform="translate(-14.922)"/>
                </g>
            </g>
            <g id="Grupo_de_máscara_14" data-name="Grupo de máscara 14" transform="translate(420.431 300.603)" style="clip-path:url(#clip-path-4)">
                <g id="rins" transform="translate(.105 .244)">
                    <g id="Grupo_332" data-name="Grupo 332" transform="translate(41.862)">
                        <g id="Grupo_331" data-name="Grupo 331">
                            <path id="Caminho_1076" data-name="Caminho 1076" class="cls-5" d="m90.269 5.551-.859-.859a16.021 16.021 0 0 0-22.657 0L64.365 7.08a10.731 10.731 0 0 0-3.165 7.639v.27a10.714 10.714 0 0 0 2.308 6.661A28.849 28.849 0 0 0 55.8 41.166v39.857h8.1v-31.9c.151.173.3.347.463.51l2.387 2.387a16.021 16.021 0 0 0 22.657 0l.859-.859a15.914 15.914 0 0 0 4.693-11.328V16.88a15.914 15.914 0 0 0-4.69-11.329zM61.274 40.512H61.2v37.81h-2.7V41.166a26.136 26.136 0 0 1 6.763-17.438 8.1 8.1 0 0 1-.9 10.359 10.717 10.717 0 0 0-3.089 6.425zm30.986-.675a13.234 13.234 0 0 1-3.9 9.419l-.859.859a13.32 13.32 0 0 1-18.838 0l-2.387-2.387A8.049 8.049 0 0 1 63.9 42v-.27A8.049 8.049 0 0 1 66.275 36a10.732 10.732 0 0 0 2.059-2.9l5.527 4.421 1.687-2.109-6.3-5.042a10.893 10.893 0 0 0-.011-4.078l6.425-6.425-1.909-1.909-5.5 5.5a10.75 10.75 0 0 0-1.978-2.728 8.05 8.05 0 0 1-2.375-5.741v-.27a8.049 8.049 0 0 1 2.373-5.73L68.662 6.6a13.32 13.32 0 0 1 18.838 0l.859.859a13.234 13.234 0 0 1 3.9 9.419z" transform="translate(-55.8)"/>
                        </g>
                    </g>
                    <g id="Grupo_334" data-name="Grupo 334">
                        <g id="Grupo_333" data-name="Grupo 333">
                            <path id="Caminho_1077" data-name="Caminho 1077" class="cls-5" d="M31.452 21.652a10.714 10.714 0 0 0 2.308-6.663v-.27A10.73 10.73 0 0 0 30.6 7.08l-2.392-2.388a16.021 16.021 0 0 0-22.657 0l-.859.859A15.916 15.916 0 0 0 0 16.88v22.956a15.914 15.914 0 0 0 4.693 11.329l.859.859a16.021 16.021 0 0 0 22.657 0l2.391-2.388c.163-.163.312-.339.463-.51v31.9h8.1v-39.86a28.848 28.848 0 0 0-7.711-19.514zM31.059 42a8.049 8.049 0 0 1-2.373 5.73L26.3 50.114a13.32 13.32 0 0 1-18.838 0l-.862-.859a13.234 13.234 0 0 1-3.9-9.419V16.88a13.234 13.234 0 0 1 3.9-9.419l.861-.861a13.32 13.32 0 0 1 18.839 0l2.386 2.39a8.049 8.049 0 0 1 2.373 5.73v.27a8.049 8.049 0 0 1-2.373 5.73 10.75 10.75 0 0 0-1.978 2.728l-5.5-5.5-1.908 1.911 6.425 6.425a10.888 10.888 0 0 0 0 4.146L19.3 36.855l1.909 1.909 5.5-5.5a10.751 10.751 0 0 0 1.978 2.728 8.05 8.05 0 0 1 2.373 5.732V42zm5.4 36.325h-2.7V40.512h-.073a10.716 10.716 0 0 0-3.086-6.424 8.1 8.1 0 0 1-.9-10.359 26.136 26.136 0 0 1 6.76 17.437v37.156z"/>
                        </g>
                    </g>
                </g>
            </g>
            <g id="Grupo_de_máscara_11" data-name="Grupo de máscara 11" transform="translate(732.395 35.122)" style="clip-path:url(#clip-path-5)">
                <g id="fisioterapia" transform="translate(.23 1.479)">
                    <path id="Caminho_1063" data-name="Caminho 1063" class="cls-5" d="M79.074 60.154h-4.806A7.834 7.834 0 0 0 76.8 55.8a10.6 10.6 0 0 0 .02-3.8 13.687 13.687 0 0 1 .1-4.971 3.268 3.268 0 0 0-.736-3.386c-1-.882-2.641-.92-4.869-.11a5.582 5.582 0 0 0-1.876 1.139 8.916 8.916 0 0 0-10.737 3.569 18.416 18.416 0 0 0-5.615-2.441 1.187 1.187 0 1 0-.6 2.3 15.746 15.746 0 0 1 5.113 2.275c-.037.1-.072.2-.106.3a8.581 8.581 0 0 0-.412 3.56 9.818 9.818 0 0 0 2.735 5.919H48.205v-3.691h3.155a1.187 1.187 0 1 0 0-2.374H37.7v-4.435a4.4 4.4 0 0 0 .448-.23 17.964 17.964 0 0 1 9.057-2.024h.02a1.187 1.187 0 0 0 .019-2.374 24.493 24.493 0 0 0-3.973.256v-6.311a10.011 10.011 0 0 0 2.816-3.1 8.9 8.9 0 0 0 1.262-5.005c.013-.313.028-.656.048-1.038v-2.975a6.268 6.268 0 0 0-6.26-6.261h-.415a9.488 9.488 0 0 0 2.934-6.224v-2.435a10.356 10.356 0 0 0-2.833-7.518 9.029 9.029 0 0 0-6.293-2.641h-.038A9.036 9.036 0 0 0 28.2 4.415a10.352 10.352 0 0 0-2.836 7.518v2.436a9.486 9.486 0 0 0 2.936 6.224h-.417a6.126 6.126 0 0 0-5.465 3.3l-6.912 11.219c-.782-1.4-2.719-4.422-5.01-4.6a2.3 2.3 0 0 0-1.971.562 2.164 2.164 0 0 0-.317 1.968l1.67 9.522a2.944 2.944 0 0 0 .822 1.966 2.536 2.536 0 0 0 2.034.319c.16-.017.339-.036.543-.055a13.44 13.44 0 0 1 6.714 1.08 20.016 20.016 0 0 1 2.662 1.481v6.361h-9.66c-1.4 0-1.434-.079-1.614-.459-.232-.492-2.353-4.816-5.244-5.037a2.293 2.293 0 0 0-1.975.563 2.143 2.143 0 0 0-.312 1.979l1.644 9.392H1.945A1.947 1.947 0 0 0 0 62.1v9.3a1.949 1.949 0 0 0 1.945 1.949H4.9v2.2a4.583 4.583 0 0 0 4.578 4.578h62.06a4.583 4.583 0 0 0 4.578-4.578v-2.2h2.958a1.952 1.952 0 0 0 1.949-1.949v-9.3a1.949 1.949 0 0 0-1.949-1.945zM70.745 53.1a6.967 6.967 0 0 1-.537-5.478 3.233 3.233 0 0 1 1.91-1.851 6.055 6.055 0 0 1 1.977-.439.9.9 0 0 1 .514.1c.041.036.158.325-.012 1.085a16.091 16.091 0 0 0-.138 5.763 8.733 8.733 0 0 1 .029 2.974c-.674 2.832-2.314 4.2-6.182 4.684l.031-.026c3.282-2.835 3.121-5.271 2.408-6.812zm-11.3.886a6.191 6.191 0 0 1 .3-2.563 7.138 7.138 0 0 1 5.737-4.923 6.781 6.781 0 0 1 2.533.21 9.263 9.263 0 0 0 .574 7.38c1.162 2.515-3.26 5.191-4.662 5.961a7.123 7.123 0 0 1-4.483-6.069zm-13.613 2.48v3.691H35.5a1.85 1.85 0 0 1 .177-3.691zM40.9 45.767a16.14 16.14 0 0 0-3.948 1.607l-.064.037c-.132-.156-.3-.376-.461-.578a45.144 45.144 0 0 0-.722-.909 25.262 25.262 0 0 0-2.4-2.476l6.537-2.637c.341-.138.7-.291 1.06-.46v5.417zm-10.311-3.785a1.473 1.473 0 0 1-1.089-2.735l.032-.013 6-2.6 1.41 2.786zm3.923-37.834A6.863 6.863 0 0 1 41.19 10.5c-2.593-.494-7.883-1.553-8.5-1.713a3.823 3.823 0 0 0-.959-.128 4.4 4.4 0 0 0-2.59 1.021 6.59 6.59 0 0 1-1.306.764 6.86 6.86 0 0 1 6.675-6.3zm-6.776 10.221v-1.414A7.52 7.52 0 0 0 30.5 11.63c.779-.542 1.029-.691 1.6-.544.426.11 6.581 1.369 9.185 1.849v1.435c0 2.04-1.947 5.03-4.631 6.307a1.2 1.2 0 0 0-.11.05c-.147.067-.3.13-.447.186a4.512 4.512 0 0 1-1.583.327 4.57 4.57 0 0 1-1.582-.325 6.636 6.636 0 0 1-.43-.18 1.206 1.206 0 0 0-.118-.055c-2.494-1.2-4.645-4.06-4.645-6.31zm9.514 8.638v.356a2.959 2.959 0 0 1-2.738 3.137 2.961 2.961 0 0 1-2.743-3.133v-.357q.168.071.338.134a6.356 6.356 0 0 0 4.81 0q.167-.062.333-.132zm-12.812 2.128a3.748 3.748 0 0 1 3.444-2.168H29.4v.4a5.329 5.329 0 0 0 5.116 5.507 5.326 5.326 0 0 0 5.112-5.507v-.4h1.513a3.891 3.891 0 0 1 3.887 3.887v2.881c-.02.378-.034.719-.047 1.031a6.581 6.581 0 0 1-.947 3.919 9.2 9.2 0 0 1-4.887 3.843L37.7 35.669a5.31 5.31 0 0 0 1.5-1.177 1.176 1.176 0 0 0 .155-.2l1.431-2.355a1.187 1.187 0 1 0-2.031-1.237l-1.363 2.243a3.275 3.275 0 0 1-1.343.878L28.6 37.05a3.805 3.805 0 0 0-1.648 1.285A15.252 15.252 0 0 0 23.569 37l2.417-3.929a1.187 1.187 0 1 0-2.022-1.244L21.1 36.481c-1.147-.184-2.3-.3-3.413-.389zM16.646 42.5a16.13 16.13 0 0 0-3.585-.071c-.217.02-.714.073-.78.08-.024-.127-1.677-9.553-1.677-9.553.938.4 2.35 2.245 3.125 3.872a2.274 2.274 0 0 0 1.536 1.478c.739.1 1.277.079 1.52.1.314.022.633.047.953.074zm8.381 6.741a9.307 9.307 0 0 1 2.766 4.067 8.864 8.864 0 0 1-2.766.364zm-9.958 6.848h7.475c4.607 0 6.193-.272 7.069-1.212a2.131 2.131 0 0 0 .557-1.652c-.15-2.189-3.17-6.725-9.183-9.505a14.052 14.052 0 0 0-2.012-.736l1.152-4.247a15.854 15.854 0 0 1 6.073 1.906 3.845 3.845 0 0 0 4.57 3.75 24.962 24.962 0 0 1 3.1 3.035c.27.331.491.615.687.866a9.893 9.893 0 0 0 .773.915v4.9a4.221 4.221 0 0 0-3.448 6.049H15.069zm-5.835-1.816c.8 1.686 2.181 1.808 3.461 1.817v4.064H7.9l-1.662-9.5c.948.375 2.277 2.095 2.996 3.619zM78.65 70.979H43.344a1.187 1.187 0 1 0 0 2.374h30.4v2.2a2.207 2.207 0 0 1-2.2 2.2H9.481a2.207 2.207 0 0 1-2.2-2.2v-2.2h30.842a1.187 1.187 0 1 0 0-2.374H2.374v-8.451H78.65z" transform="translate(0 -1.775)"/>
                </g>
            </g>
            <g id="Grupo_de_máscara_15" data-name="Grupo de máscara 15" transform="translate(732.395 300.603)" style="clip-path:url(#clip-path-6)">
                <g id="neurologia" transform="translate(.23 .997)">
                    <g id="Grupo_335" data-name="Grupo 335">
                        <path id="Caminho_1078" data-name="Caminho 1078" class="cls-5" d="M80.645 30.688a6.226 6.226 0 0 0-.6-1.205l-.017-.027-.19-.286-.015-.022a7.064 7.064 0 0 0-.2-.272 5.529 5.529 0 0 0-.453-.511l-.414-.411.38-.443a4.521 4.521 0 0 0 .689-1.153l.011-.025a4.754 4.754 0 0 0 .24-.668 7.36 7.36 0 0 0 .151-.766 6.6 6.6 0 0 0-.4-3.271 7.119 7.119 0 0 0-.361-.764l-.013-.025-.037-.067a4.945 4.945 0 0 0-.372-.6l-.013-.017a8.895 8.895 0 0 0-.524-.638A4.2 4.2 0 0 0 77.97 19a5.619 5.619 0 0 0-1.223-.793 5.838 5.838 0 0 0-1.3-.424l-.567-.111.064-.574a5.945 5.945 0 0 0-.013-1.364 5.732 5.732 0 0 0-.358-1.365l-.01-.026a6.717 6.717 0 0 0-1.767-2.5 7.179 7.179 0 0 0-1.274-.9l-.026-.015a6.69 6.69 0 0 0-1.36-.539 5.723 5.723 0 0 0-1.36-.2H68.547c-.11 0-.272 0-.437.018a6.116 6.116 0 0 0-.658.1l-.607.132-.138-.606a6.3 6.3 0 0 0-3.557-4.169 6.576 6.576 0 0 0-2.741-.6 5.927 5.927 0 0 0-2.7.633l-.556.285-.288-.555a6.32 6.32 0 0 0-4.352-3.207 6.847 6.847 0 0 0-1.374-.141A6.156 6.156 0 0 0 47.268 3.4l-.495.4-.394-.5a5.411 5.411 0 0 0-.923-.916 6.766 6.766 0 0 0-1.124-.717l-.044-.021a6.619 6.619 0 0 0-2.745-.639h-.2a6.678 6.678 0 0 0-2.6.552l-.045.02a6.8 6.8 0 0 0-1.148.681 5.414 5.414 0 0 0-.95.883l-.411.488-.481-.418a6.18 6.18 0 0 0-4.07-1.465 6.876 6.876 0 0 0-1.136.1 6.351 6.351 0 0 0-4.459 3.041l-.309.542-.544-.3a6.033 6.033 0 0 0-2.946-.747 6.581 6.581 0 0 0-2.459.48l-.023.009a7.576 7.576 0 0 0-1.3.7l-.028.02a7.46 7.46 0 0 0-1.058.923l-.029.032a5.905 5.905 0 0 0-1.305 2.313l-.166.6-.6-.158a5.638 5.638 0 0 0-1.3-.2h-.113a6.873 6.873 0 0 0-1.272.122l-.029.006a6.989 6.989 0 0 0-1.377.462 7.238 7.238 0 0 0-1.313.806l-.026.02a7.48 7.48 0 0 0-1.086 1.075l-.028.034a7.23 7.23 0 0 0-.768 1.228l-.02.042A5.728 5.728 0 0 0 7.4 15.54l.032.6-.6.055a5.855 5.855 0 0 0-.64.1l-.045.01a5.615 5.615 0 0 0-.618.192 5.248 5.248 0 0 0-1.258.649l-.017.013a5.716 5.716 0 0 0-1.14 1.015l-.018.022a9.14 9.14 0 0 0-.532.679c-.134.21-.268.444-.407.712a6.657 6.657 0 0 0-.736 3.173 6.244 6.244 0 0 0 .231 1.46l.009.034a5.225 5.225 0 0 0 .57 1.231l.3.482-.449.346a5.957 5.957 0 0 0-1.997 5.65c0 .022.007.045.012.067.064.3.141.605.235.914l.029.091a3.24 3.24 0 0 0 .111.321c.066.151.134.3.2.435a7.53 7.53 0 0 0 .431.774l.029.042c.171.237.356.469.543.681l.049.055c.082.091.145.16.208.221l.037.034c.1.092.208.179.313.262a6.781 6.781 0 0 0 .618.44l.075.044a5.1 5.1 0 0 0 1.314.493l.5.11v.51a5.214 5.214 0 0 0 .178 1.4c0 .017.009.033.015.049a6.856 6.856 0 0 0 .27.709q.075.168.159.336a7.045 7.045 0 0 0 .222.363c.149.228.313.455.49.675l.034.04a7.729 7.729 0 0 0 .582.589c.11.1.224.2.336.3.094.077.178.135.246.181l.094.065c.236.161.483.314.737.456l.057.03a6.606 6.606 0 0 0 2.9.731h.175c.242-.006.483-.023.715-.052h.028a5.744 5.744 0 0 0 .654-.143 5.072 5.072 0 0 0 1.221-.5l.539-.319.32.539a6.407 6.407 0 0 0 4.582 2.923 6.744 6.744 0 0 0 .935.066 6.282 6.282 0 0 0 4.167-1.551l.481-.424.414.49a6.462 6.462 0 0 0 4.731 2.243h.261a6.547 6.547 0 0 0 4.555 9.443 16.316 16.316 0 0 0 9.081 13.728l4.663 2.276.037.018a4.507 4.507 0 0 1 2.608 4.065 4.343 4.343 0 0 0 4.338 4.338h1.559a4.343 4.343 0 0 0 4.338-4.338 14.733 14.733 0 0 0-3.394-9.351c.39.027.781.043 1.173.043q.346 0 .693-.014a16.58 16.58 0 0 0 15.924-16.629 1.279 1.279 0 0 0-1.279-1.278 1.279 1.279 0 0 0-1.278 1.28A14.078 14.078 0 0 1 53.117 62.9l-4.678-2.281a6.016 6.016 0 0 1-3.192-4h.033a6.623 6.623 0 0 0 2.665-.751 6.352 6.352 0 0 0 2.007-1.673l.39-.5.5.4a6.537 6.537 0 0 0 2.319 1.169l.044.011a6.982 6.982 0 0 0 1.614.192 6.592 6.592 0 0 0 1.152-.1h.017a6.635 6.635 0 0 0 2.635-1.094 6.56 6.56 0 0 0 1.009-.872l.022-.024a6.281 6.281 0 0 0 .764-1.059l.308-.539.543.3a5.652 5.652 0 0 0 1.206.514 6.739 6.739 0 0 0 1.356.225h.022a5.6 5.6 0 0 0 1.429-.094 5.846 5.846 0 0 0 1.455-.432l.034-.015a6.2 6.2 0 0 0 3.69-4.264l.114-.585.59.084a4.607 4.607 0 0 0 .656.057 5.991 5.991 0 0 0 .7-.049 6.809 6.809 0 0 0 .723-.133 5.1 5.1 0 0 0 .675-.235l.016-.007c.237-.1.477-.213.712-.338l.026-.014a6.421 6.421 0 0 0 .643-.436l.022-.017a6.851 6.851 0 0 0 .62-.523l.021-.021c.2-.212.4-.436.587-.665.083-.1.163-.206.241-.311q.026-.035.049-.072c.071-.111.139-.223.2-.337.14-.241.27-.488.387-.736l.029-.067a7.063 7.063 0 0 0 .429-1.487c0-.02.006-.04.008-.061a5.941 5.941 0 0 0 .021-1.46 5.243 5.243 0 0 0-.346-1.329l-.228-.532.511-.271a5.707 5.707 0 0 0 1.1-.767l.038-.035a6.414 6.414 0 0 0 .921-1.09 6.762 6.762 0 0 0 1.044-2.911v-.02a6.454 6.454 0 0 0-.325-2.957zM47.317 62.92l4.678 2.28H52a12.282 12.282 0 0 1 6.951 10.98 1.781 1.781 0 0 1-1.779 1.779h-1.559a1.781 1.781 0 0 1-1.779-1.779 7.048 7.048 0 0 0-4.061-6.373l-4.7-2.291a13.741 13.741 0 0 1-7.641-11.44c.1-.02.2-.041.3-.066a1.279 1.279 0 0 0-.626-2.481 3.99 3.99 0 0 1-4.377-5.958 7.17 7.17 0 0 0 5.524 4.216l.4.056.116.383a6.106 6.106 0 0 0 1.731 2.75 6.186 6.186 0 0 0 2.079 1.257 8.594 8.594 0 0 0 4.738 6.687zm31.118-29.568v.041a4.15 4.15 0 0 1-.64 1.782 3.888 3.888 0 0 1-.531.625 3.145 3.145 0 0 1-.589.407l-1.285.68c-.037 0-.074-.006-.111-.006h-2.225a2.69 2.69 0 0 1-2.687-2.687 5.252 5.252 0 0 0-5.246-5.246h-.186a5.252 5.252 0 0 0-5.246 5.246 2.385 2.385 0 0 1-2.382 2.382 2.69 2.69 0 0 1-2.687-2.687V32.77a1.279 1.279 0 1 0-2.559 0v1.119a5.252 5.252 0 0 0 5.246 5.246 4.946 4.946 0 0 0 4.941-4.941 2.69 2.69 0 0 1 2.687-2.687h.186a2.69 2.69 0 0 1 2.687 2.687 5.252 5.252 0 0 0 5.246 5.246h1.819l.359.838a2.848 2.848 0 0 1 .164.681 3.548 3.548 0 0 1-.028.773 4.514 4.514 0 0 1-.259.881 6.637 6.637 0 0 1-.266.5q-.063.108-.13.214c-.048.064-.1.127-.148.19a6.817 6.817 0 0 1-.421.478c-.085.081-.24.2-.37.3-.105.078-.269.2-.357.251a5.881 5.881 0 0 1-.46.219c-.093.037-.265.107-.317.121a4.284 4.284 0 0 1-.45.083 3.462 3.462 0 0 1-.39.031c-.059 0-.227-.024-.283-.032l-1.793-.254a1.279 1.279 0 0 0-1.435 1.022l-.347 1.777a3.643 3.643 0 0 1-2.189 2.4l-.016.007-.049.022-.016.007a3.382 3.382 0 0 1-.84.242 3.855 3.855 0 0 1-.65.069c-.042 0-.084 0-.14-.006h-.046a4.193 4.193 0 0 1-.842-.137 3.1 3.1 0 0 1-.647-.285l-1.649-.918a1.279 1.279 0 0 0-1.733.484l-.935 1.639a3.706 3.706 0 0 1-.442.614 4.061 4.061 0 0 1-.617.526 4.118 4.118 0 0 1-1.629.664 4.309 4.309 0 0 1-1.689-.059 3.95 3.95 0 0 1-1.383-.7l-.858-.685a1.276 1.276 0 0 0 .006-.129v-.186a5.252 5.252 0 0 0-5.246-5.246 2.385 2.385 0 0 1-2.382-2.382 2.69 2.69 0 0 1 2.687-2.687h1.119a1.279 1.279 0 0 0 0-2.559h-1.118a5.252 5.252 0 0 0-5.246 5.246 4.946 4.946 0 0 0 4.941 4.946 2.69 2.69 0 0 1 2.687 2.687v.136l-1.088 1.397a3.821 3.821 0 0 1-1.212 1 4.1 4.1 0 0 1-1.644.448A3.643 3.643 0 0 1 44.069 54h-.016a4.8 4.8 0 0 1-.581-.159 3.6 3.6 0 0 1-1.247-.751 3.548 3.548 0 0 1-1.011-1.593l-.352-1.165a1.279 1.279 0 0 0-1.045-.9l-1.2-.171a4.6 4.6 0 0 1-3.7-3.131l-.534-1.664a1.278 1.278 0 0 0-1.5-.856l-1.7.387a4.075 4.075 0 0 1-1.029.1 3.9 3.9 0 0 1-2.861-1.338l-1.257-1.488a1.279 1.279 0 0 0-1.824-.134l-1.461 1.289a3.788 3.788 0 0 1-3.057.87 3.853 3.853 0 0 1-2.749-1.696l-.971-1.637a1.279 1.279 0 0 0-1.751-.449l-1.639.968a2.616 2.616 0 0 1-.6.235 3.252 3.252 0 0 1-.331.076 4.543 4.543 0 0 1-.457.031h-.1a4.031 4.031 0 0 1-1.73-.451 7.135 7.135 0 0 1-.508-.315l-.1-.069-.059-.04c-.073-.061-.157-.135-.232-.2a5.597 5.597 0 0 1-.372-.371 6.022 6.022 0 0 1-.425-.611c-.031-.055-.06-.124-.088-.187a4.334 4.334 0 0 1-.161-.418 2.634 2.634 0 0 1-.081-.681l.015-1.549a1.279 1.279 0 0 0-1-1.262l-1.513-.333a2.516 2.516 0 0 1-.615-.228 4.147 4.147 0 0 1-.346-.249q-.088-.07-.175-.146l-.072-.08-.043-.047a6.298 6.298 0 0 1-.359-.449 6.904 6.904 0 0 1-.388-.756l-.034-.109-.026-.082a8.024 8.024 0 0 1-.168-.649 3.411 3.411 0 0 1 1.031-3.2L5 27.288a1.28 1.28 0 0 0 .309-1.688l-.9-1.463a2.776 2.776 0 0 1-.291-.608 3.74 3.74 0 0 1-.138-.83 4.113 4.113 0 0 1 .447-1.933c.1-.188.187-.347.273-.483.106-.144.217-.284.338-.424l.036-.042a3.356 3.356 0 0 1 .664-.575l.037-.027a2.821 2.821 0 0 1 .649-.323c.116-.043.218-.075.305-.1a3.391 3.391 0 0 1 .339-.05l1.827-.169a1.279 1.279 0 0 0 1.16-1.342l-.1-1.831a3.155 3.155 0 0 1 .309-1.437 4.723 4.723 0 0 1 .469-.756 5 5 0 0 1 .684-.685 4.838 4.838 0 0 1 .816-.512 4.559 4.559 0 0 1 .85-.292 4.287 4.287 0 0 1 .771-.075h.074a3.109 3.109 0 0 1 .7.112l1.783.47a2.69 2.69 0 0 1-.015 3.784 5.246 5.246 0 0 0 0 7.419l.132.132a5.246 5.246 0 0 0 7.419 0 2.385 2.385 0 0 1 3.369 0 2.69 2.69 0 0 1 0 3.8l-.791.791a1.279 1.279 0 0 0 1.809 1.809l.791-.791a5.252 5.252 0 0 0 0-7.419 4.946 4.946 0 0 0-6.987 0 2.688 2.688 0 0 1-3.8 0l-.132-.132a2.688 2.688 0 0 1 0-3.8 5.251 5.251 0 0 0 .048-7.369l.256-.92a3.368 3.368 0 0 1 .744-1.29 4.893 4.893 0 0 1 .666-.579 5.062 5.062 0 0 1 .836-.444 4.032 4.032 0 0 1 1.5-.291 3.471 3.471 0 0 1 1.7.42l1.652.925a1.279 1.279 0 0 0 1.737-.483l.937-1.646a3.771 3.771 0 0 1 2.659-1.783 4.305 4.305 0 0 1 .712-.06 3.627 3.627 0 0 1 2.392.837l1.01.878V10a5.252 5.252 0 0 0 5.246 5.246 2.69 2.69 0 0 1 2.687 2.687v.186a2.69 2.69 0 0 1-2.687 2.687 4.946 4.946 0 0 0-4.941 4.941A5.252 5.252 0 0 0 40.588 31h1.119a1.279 1.279 0 0 0 0-2.559h-1.119a2.69 2.69 0 0 1-2.688-2.688 2.385 2.385 0 0 1 2.382-2.382 5.252 5.252 0 0 0 5.246-5.246v-.186a5.252 5.252 0 0 0-5.246-5.246A2.69 2.69 0 0 1 37.6 10V6.043c0-.036 0-.072-.005-.107l.966-1.147a2.861 2.861 0 0 1 .506-.468 4.23 4.23 0 0 1 .7-.416 4.127 4.127 0 0 1 1.582-.341h.181a4.069 4.069 0 0 1 1.67.394 4.218 4.218 0 0 1 .683.438 2.825 2.825 0 0 1 .492.486l1.2 1.522a1.279 1.279 0 0 0 1.812.2l1.5-1.221a3.789 3.789 0 0 1 3.132-.666A3.742 3.742 0 0 1 54.6 6.6l.874 1.686a1.279 1.279 0 0 0 1.72.549l1.69-.868a3.358 3.358 0 0 1 1.529-.35 4.032 4.032 0 0 1 1.681.374A3.754 3.754 0 0 1 64.22 10.4l.154.676a5.184 5.184 0 0 0-2.233 1.908 5.405 5.405 0 0 0-.812 3.959 2.382 2.382 0 0 1-1.916 2.772 2.688 2.688 0 0 1-3.127-2.161l-.2-1.1a1.279 1.279 0 1 0-2.517.46l.2 1.1a5.249 5.249 0 0 0 5.149 4.305 5.289 5.289 0 0 0 .953-.087 4.941 4.941 0 0 0 3.973-5.748 2.9 2.9 0 0 1 .432-2.093 2.585 2.585 0 0 1 1.7-1.15l.051-.012a1.318 1.318 0 0 0 .134-.022L68 12.8a3.507 3.507 0 0 1 .365-.059c.007 0 .068-.006.187-.006h.126a3.34 3.34 0 0 1 .748.1 4.317 4.317 0 0 1 .838.322 4.846 4.846 0 0 1 .817.566 4.168 4.168 0 0 1 1.1 1.534 3.447 3.447 0 0 1 .212.764 3.371 3.371 0 0 1 .012.784l-.193 1.743a1.28 1.28 0 0 0 1.025 1.4l1.722.338a3.312 3.312 0 0 1 .736.245 3.589 3.589 0 0 1 .689.468 1.93 1.93 0 0 1 .223.222c.133.147.256.3.381.464l.017.022c.033.047.118.2.174.3l.031.055c.085.161.178.342.224.463a4.1 4.1 0 0 1 .259 1.993 4.992 4.992 0 0 1-.1.514c-.017.059-.083.22-.114.294a2.233 2.233 0 0 1-.287.512l-1.155 1.346a1.279 1.279 0 0 0 .069 1.741l1.259 1.25a2.915 2.915 0 0 1 .24.271c.037.047.074.1.109.147l.173.26a3.659 3.659 0 0 1 .347.692 3.9 3.9 0 0 1 .201 1.807z" transform="translate(0 -1.005)"/>
                    </g>
                </g>
            </g>
            <g id="Grupo_de_máscara_12" data-name="Grupo de máscara 12" transform="translate(1044.361 35.122)" style="clip-path:url(#clip-path-7)">
                <g id="pediatra-2" data-name="pediatra" transform="translate(5.418 .148)">
                    <g id="Grupo_322" data-name="Grupo 322">
                        <path id="Caminho_1064" data-name="Caminho 1064" class="cls-5" d="M35.992 37.5a1.187 1.187 0 0 0 1.187-1.187v-3.4a1.187 1.187 0 0 0-2.374 0v3.4a1.187 1.187 0 0 0 1.187 1.187z" transform="translate(-13.758 -7.925)"/>
                        <path id="Caminho_1065" data-name="Caminho 1065" class="cls-5" d="M54.976 37.5a1.187 1.187 0 0 0 1.187-1.187v-3.4a1.187 1.187 0 0 0-2.374 0v3.4a1.187 1.187 0 0 0 1.187 1.187z" transform="translate(-18.5 -7.925)"/>
                        <path id="Caminho_1066" data-name="Caminho 1066" class="cls-5" d="m42.484 39.487 1.978 1.381a1.187 1.187 0 0 0 1.359-1.946l-1.2-.84 1.388-3.44a1.187 1.187 0 0 0-2.2-.888l-1.746 4.316a1.187 1.187 0 0 0 .421 1.417z" transform="translate(-15.549 -8.246)"/>
                        <path id="Caminho_1067" data-name="Caminho 1067" class="cls-5" d="M43.929 52.789a5.951 5.951 0 0 0 5.815-4.747 1.979 1.979 0 0 0-1.939-2.374h-7.752a1.979 1.979 0 0 0-1.939 2.373 5.951 5.951 0 0 0 5.815 4.748zm3.358-4.747a3.563 3.563 0 0 1-6.717 0z" transform="translate(-14.574 -11.407)"/>
                        <path id="Caminho_1068" data-name="Caminho 1068" class="cls-5" d="M76.2 85.944v-1.623a1.187 1.187 0 1 0-2.374 0v1.623a1.187 1.187 0 0 0 2.374 0z" transform="translate(-23.505 -20.765)"/>
                        <path id="Caminho_1069" data-name="Caminho 1069" class="cls-5" d="M85.351 83.134a1.187 1.187 0 0 0-1.187 1.187v1.623a1.187 1.187 0 0 0 2.374 0V84.32a1.187 1.187 0 0 0-1.187-1.186z" transform="translate(-26.087 -20.765)"/>
                        <path id="Caminho_1070" data-name="Caminho 1070" class="cls-5" d="M80.687 90.44a1.663 1.663 0 0 1-2.35 0 1.187 1.187 0 0 0-1.679 1.678 4.04 4.04 0 0 0 5.707 0 1.187 1.187 0 1 0-1.679-1.678z" transform="translate(-24.125 -22.504)"/>
                        <path id="Caminho_1071" data-name="Caminho 1071" class="cls-5" d="M73.366 60.522a8.039 8.039 0 0 0-7.992-7.262h-.4a9.112 9.112 0 0 0-8.617-6.183h-.827a16.177 16.177 0 0 0-1.919-6.354 3.734 3.734 0 0 0 1.657-4.5 5.943 5.943 0 0 0 3.783-5.523v-1.767a5.908 5.908 0 0 0-1.441-3.87 21.724 21.724 0 0 0-4.556-16.948A1.187 1.187 0 0 0 51.206 9.6a19.17 19.17 0 0 1 4.285 12.155c0 .571-.028 1.138-.078 1.7a5.9 5.9 0 0 0-2.3-.462h-.809v-3.625a5.941 5.941 0 0 0-5.934-5.934H40.7a3.554 3.554 0 0 0-3.144 1.889L36.4 17.5a3.554 3.554 0 0 1-3.144 1.889h-9.793a3.565 3.565 0 0 0-3.563 3.557V23h-.809a5.9 5.9 0 0 0-2.3.462 19.266 19.266 0 0 1-.078-1.7 19.386 19.386 0 0 1 30.7-15.749A1.187 1.187 0 0 0 48.8 4.086a21.753 21.753 0 0 0-34.2 20.977 5.908 5.908 0 0 0-1.441 3.87V30.7a5.941 5.941 0 0 0 5.934 5.934h1.8a14.543 14.543 0 0 0 4.076 5.721l-2.634 4.722h-6.49a9.11 9.11 0 0 0-9.1 9.1v22.077a2.773 2.773 0 0 0 2.769 2.769h7.359a1.187 1.187 0 1 0 0-2.374H9.519a.4.4 0 0 1-.4-.4V56.177a6.733 6.733 0 0 1 6.726-6.726h5.166l-1.633 2.928a1.981 1.981 0 0 0 .35 2.384L24 58.9l-3.733 3.435a1.974 1.974 0 0 0-.46 2.277l6.407 14.038h-3.8a1.187 1.187 0 0 0 0 2.374h47.4a1.98 1.98 0 0 0 1.978-1.978v-.32a6.809 6.809 0 0 0-2.12-4.94 9.189 9.189 0 0 0 3.136-4.12h.263a4.576 4.576 0 0 0 .3-9.143zm-7.992-4.888a5.66 5.66 0 0 1 5.049 3.112H65.3a8.765 8.765 0 0 1-6.682-3.1q.141-.007.285-.007zm-9.013-6.183a6.731 6.731 0 0 1 6.057 3.809H58.9a8.039 8.039 0 0 0-7.992 7.262 4.567 4.567 0 0 0-.8.125l-1.9-1.744 4.266-4.14a1.981 1.981 0 0 0 .35-2.383L51.2 49.451h5.166zm1.086 8.419a8.731 8.731 0 0 1-3.594.872 5.693 5.693 0 0 1 2.309-2.4 11.136 11.136 0 0 0 1.281 1.526zm-6.535 9.4a2.2 2.2 0 0 1-.041-4.356v3.506c0 .286.015.569.041.849zm-7.95-22.37v13.273l-4.1-3.825 3.529-9.248.571-.2zm9.857-8.263a1.365 1.365 0 0 1-1.07 2.215h-1.534a14.446 14.446 0 0 0 1.1-2.215zm-4.4 4.589h2.714a12.655 12.655 0 0 1 2.02 5.854h-3.28l-2.634-4.722a14.623 14.623 0 0 0 1.18-1.132zm-3.081 2.6 5.272 9.45-4.145 4.022-1.127-1.037v-12.44zm7.781-18.448a3.565 3.565 0 0 1 3.561 3.561V30.7a3.565 3.565 0 0 1-3.561 3.561h-1.1a14.492 14.492 0 0 0 .292-2.9v-5.988zm-34.026 8.883a3.565 3.565 0 0 1-3.56-3.561v-1.767a3.565 3.565 0 0 1 3.561-3.561h.806v5.986a14.481 14.481 0 0 0 .292 2.9zm3.183-2.9v-8.415a1.188 1.188 0 0 1 1.187-1.187h9.789a5.923 5.923 0 0 0 5.239-3.148l1.156-2.174a1.184 1.184 0 0 1 1.048-.63h5.677a3.565 3.565 0 0 1 3.561 3.561v11.991a12.12 12.12 0 0 1-12.105 12.106h-3.446a12.12 12.12 0 0 1-12.106-12.106zM29.819 45.1l3.531 9.246-4.1 3.825V44.9q.283.107.571.2zm-2.945 29.281L22.083 63.89l4.791-4.409zm0-18.125-1.127 1.037-4.147-4.022 5.272-9.45zm8.044 22.394h-5.67V61.419l5.016-4.678.654 1.713zM32.6 45.729a14.544 14.544 0 0 0 1.783.11h3.445a14.544 14.544 0 0 0 1.783-.11l-3.506 9.18zm11.55 22.08A1.187 1.187 0 0 0 42.962 69v9.65h-5.67v-20.2l.654-1.713 5.016 4.678v2.039a1.187 1.187 0 1 0 2.374 0v-3.973l2.609 2.4a4.564 4.564 0 0 0 .118 6.528l-2.726 5.97V69a1.187 1.187 0 0 0-1.188-1.19zm8.337 10.84H46l4.159-9.108a4.573 4.573 0 0 0 1.05.123h.263a9.189 9.189 0 0 0 3.136 4.12 6.809 6.809 0 0 0-2.118 4.865zm2.372 0A4.456 4.456 0 0 1 56.865 75a9.1 9.1 0 0 0 3.15.56h4.243a9.1 9.1 0 0 0 3.15-.56 4.456 4.456 0 0 1 2.007 3.645zm16.171-12.23a6.778 6.778 0 0 1-6.771 6.771h-4.244a6.778 6.778 0 0 1-6.771-6.771v-5.3h.374a11.1 11.1 0 0 0 5.848-1.654 11.112 11.112 0 0 0 5.834 1.654h5.3c.141 0 .284 0 .426-.009v.179zm2.333.85a9.18 9.18 0 0 0 .041-.85v-3.506a2.2 2.2 0 0 1-.041 4.356z" transform="translate(-6.75)"/>
                    </g>
                </g>
            </g>
            <g id="Grupo_de_máscara_16" data-name="Grupo de máscara 16" transform="translate(1044.361 300.603)" style="clip-path:url(#clip-path-8)">
                <g id="Page-1" transform="translate(.354 .245)">
                    <g id="_007---Autism" data-name="007---Autism">
                        <path id="Shape" class="cls-5" d="M3.787 50.491a9.758 9.758 0 0 0 1.4.81c.583.3 1.562.8 1.631 1.148a2.347 2.347 0 0 1-.159 1.368c-.2.432-.412.8-.594 1.124-.494.874-1.322 2.337-.074 3.357.292.27.8.66 1.254 1.013a3.4 3.4 0 0 0-.439 1.949 1.95 1.95 0 0 0 .8 1.329c.3.211.62.394.934.574.8.454 1.111.666 1.215 1.09a3.72 3.72 0 0 1-.135 1.62c-.08.361-.157.722-.2 1.08a8.036 8.036 0 0 0 .444 3.638 5.058 5.058 0 0 0 4.778 3.68 5.429 5.429 0 0 0 1.107-.117 102.469 102.469 0 0 0 11.385-3.407C30.177 72.53 32.1 77.959 32.6 80a1.35 1.35 0 0 0 1.311 1.025l33.889-.098a1.35 1.35 0 0 0 1.286-1.755 10.419 10.419 0 0 0-1.368-2.566 12.6 12.6 0 0 1-.874-1.461 25.447 25.447 0 0 1-1.52-3.845 45.3 45.3 0 0 1-1.6-7.986 22.8 22.8 0 0 1 .878-9.3h3.362a4.051 4.051 0 0 0 4.051-4.051V32.409a1.35 1.35 0 0 0-1.35-1.35h-5.45a4.911 4.911 0 0 0 .049-.675 4.726 4.726 0 1 0-9.452 0 4.91 4.91 0 0 0 .049.675h-4.1v-4.1a4.778 4.778 0 0 0 2.22-.209 4.727 4.727 0 0 0-2.22-9.147v-5.45a1.35 1.35 0 0 0-1.35-1.35H32.857a4.051 4.051 0 0 0-4.051 4.051v35.109a4.051 4.051 0 0 0 4.051 4.051h28.912a25.538 25.538 0 0 0-.72 9.628 48.148 48.148 0 0 0 1.7 8.467 28.3 28.3 0 0 0 1.676 4.227A14.982 14.982 0 0 0 65.47 78.1l.09.135-30.629.085a21.511 21.511 0 0 0-4.753-8.62l1.215-.425c.9-.316 1.587-.554 1.936-.666 5.785-1.83 8.677-4.464 8.6-7.832a1.351 1.351 0 1 0-2.7.063c.032 1.39-1.106 3.416-6.719 5.192-.366.117-1.071.363-2.007.69-1 .351-2.279.8-3.686 1.275h-.009a105.068 105.068 0 0 1-11.613 3.511 2.389 2.389 0 0 1-2.771-1.8 5.369 5.369 0 0 1-.317-2.409c.035-.284.1-.564.162-.847a5.911 5.911 0 0 0 .117-2.874 4.479 4.479 0 0 0-2.5-2.763l-.28-.159a5.062 5.062 0 0 1 .52-.835 1.35 1.35 0 0 0-.26-1.921 53.904 53.904 0 0 1-1.647-1.261l.2-.365c.212-.371.454-.8.69-1.3a5.063 5.063 0 0 0 .361-3.022c-.324-1.647-1.9-2.455-3.053-3.044a7.818 7.818 0 0 1-1.117-.653 5.852 5.852 0 0 1-.8-.655c0-.205.22-.7 1.249-1.954A54.516 54.516 0 0 0 11.934 35.6a4.017 4.017 0 0 0 .52-1.824 4.726 4.726 0 0 0-1.973-3.376c-.54-.5-1.06-.974-1.121-1.414a2.431 2.431 0 0 1 .211-.924c.22-.579.474-1.146.729-1.715a19.727 19.727 0 0 0 1.321-3.561l.135-.575a33.76 33.76 0 0 1 1.1-3.986 23.158 23.158 0 0 1 4.844-7.91c2.583-2.733 6.649-4.667 12.1-5.751A87.62 87.62 0 0 1 42.471 2.74a29.051 29.051 0 0 1 17.394 4.73v1.307a1.35 1.35 0 0 0 2.161 1.08 2.082 2.082 0 0 1 2.791.358 2.037 2.037 0 0 1 .39 1.746 2 2 0 0 1-1.291 1.427 2.039 2.039 0 0 1-1.9-.29 1.35 1.35 0 0 0-2.152 1.08v6.077a2.7 2.7 0 0 0 2.7 2.7h6.077a1.35 1.35 0 0 0 1.08-2.161 2.026 2.026 0 1 1 3.241 0 1.35 1.35 0 0 0 1.08 2.161h7.428a1.35 1.35 0 0 0 1.35-1.35V4.051A4.051 4.051 0 0 0 78.769 0H61.215a1.35 1.35 0 0 0-1.35 1.35v2.886A31.987 31.987 0 0 0 42.334.042a90.129 90.129 0 0 0-13.062 1.874c-6.089 1.215-10.514 3.35-13.535 6.542a25.873 25.873 0 0 0-5.416 8.835 36.627 36.627 0 0 0-1.2 4.312l-.135.57a17.619 17.619 0 0 1-1.155 3.076c-.27.616-.551 1.232-.793 1.869a4.509 4.509 0 0 0-.356 2.258A5.161 5.161 0 0 0 8.654 32.4c.66.6 1.094 1.032 1.1 1.4a2.222 2.222 0 0 1-.23.586 52.24 52.24 0 0 1-5.908 9.6c-.98 1.194-2.006 2.584-1.79 3.975a4.126 4.126 0 0 0 1.961 2.53zm27.72-35.637a1.35 1.35 0 0 1 1.35-1.35h16.2v6.076a1.35 1.35 0 0 0 2.161 1.08 2.082 2.082 0 0 1 2.791.358 2.037 2.037 0 0 1 .39 1.746 2 2 0 0 1-1.291 1.427 2.039 2.039 0 0 1-1.9-.3 1.35 1.35 0 0 0-2.148 1.086v6.077h-4.1a4.8 4.8 0 0 0-.211-2.217 4.727 4.727 0 0 0-9.2 1.542 4.91 4.91 0 0 0 .049.675h-4.1zm0 35.109v-16.2h6.077a1.35 1.35 0 0 0 1.08-2.161 2.028 2.028 0 0 1 2.105-3.181 1.994 1.994 0 0 1 1.431 1.287 2.026 2.026 0 0 1-.3 1.9 1.35 1.35 0 0 0 1.087 2.15h6.077v4.1a4.726 4.726 0 1 0 0 9.355v4.1h-16.2a1.35 1.35 0 0 1-1.357-1.35zm19.506-5.942a1.359 1.359 0 0 0-1.417.135 2.026 2.026 0 1 1 0-3.241 1.35 1.35 0 0 0 2.161-1.08v-6.076h6.077a1.35 1.35 0 0 0 1.08-2.161 2.026 2.026 0 1 1 3.241 0 1.35 1.35 0 0 0 1.08 2.161h6.082v16.2a1.35 1.35 0 0 1-1.35 1.35h-16.2v-6.072a1.35 1.35 0 0 0-.754-1.215zM62.565 2.7h16.2a1.35 1.35 0 0 1 1.35 1.35v16.2h-4.1a4.909 4.909 0 0 0 .049-.675 4.726 4.726 0 1 0-9.452 0 4.911 4.911 0 0 0 .049.675h-4.1v-4.1a4.778 4.778 0 0 0 2.22-.209A4.727 4.727 0 0 0 62.565 6.8z" transform="translate(-1.797)"/>
                        <path id="Shape-2" data-name="Shape" class="cls-5" d="m21.009 27 .135-.586a30.333 30.333 0 0 1 .91-3.337A17.644 17.644 0 0 1 25.769 17a11.4 11.4 0 0 1 3.673-2.474 1.35 1.35 0 1 0-1.1-2.463 14.02 14.02 0 0 0-4.542 3.09 20.316 20.316 0 0 0-4.287 7 32.4 32.4 0 0 0-1.009 3.661l-.135.594a1.35 1.35 0 0 0 1.02 1.62 1.337 1.337 0 0 0 .3.034A1.35 1.35 0 0 0 21.009 27z" transform="translate(-5.929 -2.98)"/>
                        <circle id="Oval" class="cls-5" cx="1.35" cy="1.35" r="1.35" transform="translate(10.805 27.007)"/>
                    </g>
                </g>
            </g>
        </g>
    </g>
</svg>
