<svg xmlns="http://www.w3.org/2000/svg" width="81" height="82">
    <defs>
        <clipPath id="clip-path">
            <rect id="Ret칙ngulo_469" data-name="Ret칙ngulo 469" width="81" height="82" rx="10" transform="translate(.203 -.438)" style="stroke:#707070;fill:#fff"/>
        </clipPath>
        <style>
            .cls-3{fill:#fff}
        </style>
    </defs>
    <g id="Grupo_de_m치scara_10" data-name="Grupo de m치scara 10" transform="translate(-.203 .438)" style="clip-path:url(#clip-path)">
        <g id="spinal-column" transform="translate(1.961 .148)">
            <path id="Caminho_1053" data-name="Caminho 1053" class="cls-3" d="M35.754 0a1.194 1.194 0 0 0-1.194 1.194v1.69a11.234 11.234 0 0 1-3.469 8.1 11.237 11.237 0 0 1-1.02.858 1.194 1.194 0 1 0 1.43 1.913 13.629 13.629 0 0 0 1.237-1.042 13.633 13.633 0 0 0 4.21-9.827V1.194A1.194 1.194 0 0 0 35.754 0z" transform="translate(-9.248)"/>
            <path id="Caminho_1054" data-name="Caminho 1054" class="cls-3" d="M20.531 19.312a1.194 1.194 0 0 0-1.569-.626l-4.525 1.942A19.733 19.733 0 0 0 4.332 47.087v18.1a1.194 1.194 0 0 0 2.389 0V46.818A1.194 1.194 0 0 0 6.6 46.3a17.344 17.344 0 0 1 8.78-23.477l4.52-1.942a1.194 1.194 0 0 0 .631-1.569z" transform="translate(-2.474 -4.643)"/>
            <path id="Caminho_1055" data-name="Caminho 1055" class="cls-3" d="M26.481 67.356a13.917 13.917 0 0 1-1.589-6.445V44.2a1.194 1.194 0 0 0-2.389 0v19.552a6.707 6.707 0 0 1-.859 3.281l-.593 1.055a1.194 1.194 0 1 0 2.082 1.171l.593-1.055q.14-.249.264-.506c.119.259.244.516.376.769l.725 1.381a.31.31 0 0 1 .035.164l-.573 9.055a1.194 1.194 0 0 0 1.116 1.267h.077a1.2 1.2 0 0 0 1.191-1.119l.573-9.055a2.7 2.7 0 0 0-.3-1.426z" transform="translate(-7.076 -10.743)"/>
            <path id="Caminho_1056" data-name="Caminho 1056" class="cls-3" d="M26.474 96.368a1.2 1.2 0 0 0-1.267 1.116l-.4 6.34a1.194 1.194 0 0 0 1.116 1.267H26a1.2 1.2 0 0 0 1.191-1.119l.4-6.34a1.194 1.194 0 0 0-1.117-1.264z" transform="translate(-8.051 -24.07)"/>
            <path id="Caminho_1057" data-name="Caminho 1057" class="cls-3" d="M93.743 28.33a1.2 1.2 0 0 0 1.106-1.644 19.61 19.61 0 0 0-10.495-10.7l-6.577-2.823a11.151 11.151 0 0 1-3.3-2.18 11.234 11.234 0 0 1-3.469-8.1V1.194a1.194 1.194 0 1 0-2.389 0v1.69a13.633 13.633 0 0 0 4.21 9.827 13.529 13.529 0 0 0 4.008 2.646l6.577 2.823a17.237 17.237 0 0 1 9.224 9.405 1.194 1.194 0 0 0 1.105.745z" transform="translate(-18.995)"/>
            <path id="Caminho_1058" data-name="Caminho 1058" class="cls-3" d="M104.011 42.434a1.194 1.194 0 1 0-2.376.247A17.3 17.3 0 0 1 100 51.988a1.194 1.194 0 0 0-.119.519v18.374a1.194 1.194 0 0 0 2.389 0v-18.1a19.679 19.679 0 0 0 1.741-10.347z" transform="translate(-26.805 -10.332)"/>
            <path id="Caminho_1059" data-name="Caminho 1059" class="cls-3" d="M84.167 67.033a6.707 6.707 0 0 1-.859-3.281V44.2a1.194 1.194 0 0 0-2.389 0v16.712a13.917 13.917 0 0 1-1.589 6.445l-.725 1.381a2.7 2.7 0 0 0-.3 1.426l1.3 20.485a1.194 1.194 0 0 0 1.191 1.119h.077a1.194 1.194 0 0 0 1.109-1.268l-1.3-20.484a.313.313 0 0 1 .035-.165l.725-1.381c.133-.253.257-.51.376-.769q.124.257.264.506l.593 1.055a1.194 1.194 0 1 0 2.082-1.171z" transform="translate(-21.413 -10.743)"/>
            <path id="Caminho_1060" data-name="Caminho 1060" class="cls-3" d="m57.592 25.847-.674-2.779a1.824 1.824 0 0 0-1.778-1.4h-9.3a1.824 1.824 0 0 0-1.778 1.4l-.674 2.78a3.6 3.6 0 0 0-3.147 3.566v.171a3.6 3.6 0 0 0 3.575 3.593l-.427 1.763a3.6 3.6 0 0 0-3.147 3.566v.17a3.6 3.6 0 0 0 3.575 3.594l-.427 1.763a3.6 3.6 0 0 0-3.152 3.566v.171a3.6 3.6 0 0 0 3.575 3.594l-.427 1.763a3.6 3.6 0 0 0-3.147 3.566v.171a3.6 3.6 0 0 0 3.575 3.594l-.427 1.763a3.6 3.6 0 0 0-3.147 3.566v.17a3.6 3.6 0 0 0 3.575 3.594l-.427 1.763a3.6 3.6 0 0 0-3.147 3.566v.171a3.6 3.6 0 0 0 3.594 3.594h.937l3.052 2.236a4.526 4.526 0 0 0 1.474.712v3.647a1.194 1.194 0 0 0 2.389 0v-3.647a4.524 4.524 0 0 0 1.474-.712l3.052-2.236h.937a3.6 3.6 0 0 0 3.594-3.594v-.171a3.6 3.6 0 0 0-3.147-3.566l-.427-1.763a3.6 3.6 0 0 0 3.575-3.594v-.17a3.6 3.6 0 0 0-3.147-3.566l-.427-1.763a3.6 3.6 0 0 0 3.575-3.594v-.171a3.6 3.6 0 0 0-3.147-3.566l-.427-1.763a3.6 3.6 0 0 0 3.575-3.594V47.6a3.6 3.6 0 0 0-3.147-3.566l-.427-1.763a3.6 3.6 0 0 0 3.575-3.594v-.17a3.6 3.6 0 0 0-3.147-3.566l-.427-1.763a3.6 3.6 0 0 0 3.575-3.593v-.171a3.6 3.6 0 0 0-3.147-3.567zm.759 49.035v.171a1.207 1.207 0 0 1-1.205 1.205h-1.12a1.817 1.817 0 0 0-1.081.354l-3.2 2.344c-.02.015-.041.028-.062.042v-2.641a1.194 1.194 0 0 0-2.389 0V79c-.021-.014-.042-.027-.062-.042l-3.2-2.344a1.817 1.817 0 0 0-1.081-.354h-1.12a1.207 1.207 0 0 1-1.205-1.205v-.171a1.207 1.207 0 0 1 1.205-1.205 1.824 1.824 0 0 0 1.778-1.4l.434-1.791 1.777 1.3a4.5 4.5 0 0 0 5.336 0l1.777-1.3.434 1.791a1.824 1.824 0 0 0 1.778 1.4 1.207 1.207 0 0 1 1.205 1.206zm0-9.094v.17a1.207 1.207 0 0 1-1.205 1.205h-1.12a1.818 1.818 0 0 0-1.081.354l-3.2 2.344c-.02.015-.041.028-.062.042v-2.64a1.194 1.194 0 0 0-2.389 0V69.9c-.021-.014-.042-.027-.062-.042l-3.2-2.344a1.817 1.817 0 0 0-1.081-.354h-1.12a1.207 1.207 0 0 1-1.205-1.205v-.17a1.207 1.207 0 0 1 1.205-1.205 1.824 1.824 0 0 0 1.778-1.4l.434-1.791 1.777 1.3a4.5 4.5 0 0 0 5.336 0l1.777-1.3.434 1.791a1.824 1.824 0 0 0 1.778 1.4 1.207 1.207 0 0 1 1.206 1.206zm0-9.094v.171a1.207 1.207 0 0 1-1.205 1.205h-1.12a1.817 1.817 0 0 0-1.081.354l-3.2 2.344c-.02.015-.041.028-.062.042v-2.64a1.194 1.194 0 0 0-2.389 0v2.64c-.021-.014-.042-.027-.062-.042l-3.2-2.344a1.817 1.817 0 0 0-1.081-.354h-1.12a1.207 1.207 0 0 1-1.205-1.205v-.171a1.207 1.207 0 0 1 1.205-1.205 1.824 1.824 0 0 0 1.778-1.4l.434-1.791 1.777 1.3a4.5 4.5 0 0 0 5.336 0l1.777-1.3.434 1.791a1.824 1.824 0 0 0 1.778 1.4 1.207 1.207 0 0 1 1.205 1.205zm0-9.094v.171a1.207 1.207 0 0 1-1.205 1.205h-1.12a1.817 1.817 0 0 0-1.081.354l-3.2 2.344c-.02.015-.041.028-.062.042v-2.64a1.194 1.194 0 0 0-2.389 0v2.641c-.021-.014-.042-.027-.062-.042l-3.2-2.344a1.817 1.817 0 0 0-1.081-.354h-1.12a1.207 1.207 0 0 1-1.205-1.205V47.6a1.207 1.207 0 0 1 1.206-1.2 1.824 1.824 0 0 0 1.777-1.4l.434-1.791 1.777 1.3a4.5 4.5 0 0 0 5.336 0l1.777-1.3.434 1.791a1.824 1.824 0 0 0 1.778 1.4 1.207 1.207 0 0 1 1.206 1.2zm0-9.094v.17a1.207 1.207 0 0 1-1.205 1.205h-1.12a1.818 1.818 0 0 0-1.081.354l-3.2 2.344c-.02.015-.041.028-.062.042v-2.639a1.194 1.194 0 0 0-2.389 0v2.641c-.021-.014-.042-.027-.062-.042l-3.2-2.344a1.817 1.817 0 0 0-1.081-.354h-1.12a1.207 1.207 0 0 1-1.205-1.205v-.17a1.207 1.207 0 0 1 1.206-1.208 1.824 1.824 0 0 0 1.778-1.4l.434-1.791 1.777 1.3a4.5 4.5 0 0 0 5.336 0l1.777-1.3.434 1.791a1.824 1.824 0 0 0 1.778 1.4 1.207 1.207 0 0 1 1.205 1.206zm0-8.923a1.207 1.207 0 0 1-1.205 1.205h-1.12a1.818 1.818 0 0 0-1.081.354l-3.2 2.344c-.02.015-.041.028-.062.042v-2.64a1.194 1.194 0 1 0-2.389 0v2.641c-.021-.014-.042-.027-.062-.042l-3.2-2.344a1.817 1.817 0 0 0-1.081-.354h-1.12a1.207 1.207 0 0 1-1.205-1.205v-.171a1.207 1.207 0 0 1 1.205-1.205 1.824 1.824 0 0 0 1.778-1.4l.667-2.752H54.7l.667 2.752a1.824 1.824 0 0 0 1.778 1.4 1.207 1.207 0 0 1 1.205 1.205v.171z" transform="translate(-11.907 -5.413)"/>
            <path id="Caminho_1061" data-name="Caminho 1061" class="cls-3" d="M53.5 16.58a1.194 1.194 0 0 0 1.2-1.195v-2.893a1.194 1.194 0 0 0-2.389 0v2.893A1.194 1.194 0 0 0 53.5 16.58z" transform="translate(-14.922 -2.822)"/>
            <path id="Caminho_1062" data-name="Caminho 1062" class="cls-3" d="M53.5 5.282a1.194 1.194 0 0 0 1.2-1.194V1.194a1.194 1.194 0 0 0-2.389 0v2.894A1.194 1.194 0 0 0 53.5 5.282z" transform="translate(-14.922)"/>
        </g>
    </g>
</svg>
