<svg xmlns="http://www.w3.org/2000/svg" width="81" height="82">
    <defs>
        <clipPath id="a">
            <rect data-name="Retângulo 472" width="81" height="82" rx="10" transform="translate(.238 .082)" style="stroke:#707070;fill:#fff"/>
        </clipPath>
    </defs>
    <g data-name="Grupo de máscara 15" transform="translate(-.238 -.082)" style="clip-path:url(#a)">
        <g data-name="Grupo 335">
            <path data-name="Caminho 1078" d="M80.645 30.688a6.226 6.226 0 0 0-.6-1.205l-.017-.027-.19-.286-.015-.022a7.064 7.064 0 0 0-.2-.272 5.529 5.529 0 0 0-.453-.511l-.414-.411.38-.443a4.521 4.521 0 0 0 .689-1.153l.011-.025a4.754 4.754 0 0 0 .24-.668 7.36 7.36 0 0 0 .151-.766 6.6 6.6 0 0 0-.4-3.271 7.119 7.119 0 0 0-.361-.764l-.013-.025-.037-.067a4.945 4.945 0 0 0-.372-.6l-.013-.017a8.895 8.895 0 0 0-.524-.638A4.2 4.2 0 0 0 77.97 19a5.619 5.619 0 0 0-1.223-.793 5.838 5.838 0 0 0-1.3-.424l-.567-.111.064-.574a5.945 5.945 0 0 0-.013-1.364 5.732 5.732 0 0 0-.358-1.365l-.01-.026a6.717 6.717 0 0 0-1.767-2.5 7.179 7.179 0 0 0-1.274-.9l-.026-.015a6.69 6.69 0 0 0-1.36-.539 5.723 5.723 0 0 0-1.36-.2H68.547c-.11 0-.272 0-.437.018a6.116 6.116 0 0 0-.658.1l-.607.132-.138-.606a6.3 6.3 0 0 0-3.557-4.169 6.576 6.576 0 0 0-2.741-.6 5.927 5.927 0 0 0-2.7.633l-.556.285-.288-.555a6.32 6.32 0 0 0-4.352-3.207 6.847 6.847 0 0 0-1.374-.141A6.156 6.156 0 0 0 47.268 3.4l-.495.4-.394-.5a5.411 5.411 0 0 0-.923-.916 6.766 6.766 0 0 0-1.124-.717l-.044-.021a6.619 6.619 0 0 0-2.745-.639h-.2a6.678 6.678 0 0 0-2.6.552l-.045.02a6.8 6.8 0 0 0-1.148.681 5.414 5.414 0 0 0-.95.883l-.411.488-.481-.418a6.18 6.18 0 0 0-4.07-1.465 6.876 6.876 0 0 0-1.136.1 6.351 6.351 0 0 0-4.459 3.041l-.309.542-.544-.3a6.033 6.033 0 0 0-2.946-.747 6.581 6.581 0 0 0-2.459.48l-.023.009a7.576 7.576 0 0 0-1.3.7l-.028.02a7.46 7.46 0 0 0-1.058.923l-.029.032a5.905 5.905 0 0 0-1.305 2.313l-.166.6-.6-.158a5.638 5.638 0 0 0-1.3-.2h-.113a6.873 6.873 0 0 0-1.272.122l-.029.006a6.989 6.989 0 0 0-1.377.462 7.238 7.238 0 0 0-1.313.806l-.026.02a7.48 7.48 0 0 0-1.086 1.075l-.028.034a7.23 7.23 0 0 0-.768 1.228l-.02.042A5.728 5.728 0 0 0 7.4 15.54l.032.6-.6.055a5.855 5.855 0 0 0-.64.1l-.045.01a5.615 5.615 0 0 0-.618.192 5.248 5.248 0 0 0-1.258.649l-.017.013a5.716 5.716 0 0 0-1.14 1.015l-.018.022a9.14 9.14 0 0 0-.532.679c-.134.21-.268.444-.407.712a6.657 6.657 0 0 0-.736 3.173 6.244 6.244 0 0 0 .231 1.46l.009.034a5.225 5.225 0 0 0 .57 1.231l.3.482-.449.346a5.957 5.957 0 0 0-1.997 5.65c0 .022.007.045.012.067.064.3.141.605.235.914l.029.091a3.24 3.24 0 0 0 .111.321c.066.151.134.3.2.435a7.53 7.53 0 0 0 .431.774l.029.042c.171.237.356.469.543.681l.049.055c.082.091.145.16.208.221l.037.034c.1.092.208.179.313.262a6.781 6.781 0 0 0 .618.44l.075.044a5.1 5.1 0 0 0 1.314.493l.5.11v.51a5.214 5.214 0 0 0 .178 1.4c0 .017.009.033.015.049a6.856 6.856 0 0 0 .27.709q.075.168.159.336a7.045 7.045 0 0 0 .222.363c.149.228.313.455.49.675l.034.04a7.729 7.729 0 0 0 .582.589c.11.1.224.2.336.3.094.077.178.135.246.181l.094.065c.236.161.483.314.737.456l.057.03a6.606 6.606 0 0 0 2.9.731h.175c.242-.006.483-.023.715-.052h.028a5.744 5.744 0 0 0 .654-.143 5.072 5.072 0 0 0 1.221-.5l.539-.319.32.539a6.407 6.407 0 0 0 4.582 2.923 6.744 6.744 0 0 0 .935.066 6.282 6.282 0 0 0 4.167-1.551l.481-.424.414.49a6.462 6.462 0 0 0 4.731 2.243h.261a6.547 6.547 0 0 0 4.555 9.443 16.316 16.316 0 0 0 9.081 13.728l4.663 2.276.037.018a4.507 4.507 0 0 1 2.608 4.065 4.343 4.343 0 0 0 4.338 4.338h1.559a4.343 4.343 0 0 0 4.338-4.338 14.733 14.733 0 0 0-3.394-9.351c.39.027.781.043 1.173.043q.346 0 .693-.014a16.58 16.58 0 0 0 15.924-16.629 1.279 1.279 0 0 0-1.279-1.278 1.279 1.279 0 0 0-1.278 1.28A14.078 14.078 0 0 1 53.117 62.9l-4.678-2.281a6.016 6.016 0 0 1-3.192-4h.033a6.623 6.623 0 0 0 2.665-.751 6.352 6.352 0 0 0 2.007-1.673l.39-.5.5.4a6.537 6.537 0 0 0 2.319 1.169l.044.011a6.982 6.982 0 0 0 1.614.192 6.592 6.592 0 0 0 1.152-.1h.017a6.635 6.635 0 0 0 2.635-1.094 6.56 6.56 0 0 0 1.009-.872l.022-.024a6.281 6.281 0 0 0 .764-1.059l.308-.539.543.3a5.652 5.652 0 0 0 1.206.514 6.739 6.739 0 0 0 1.356.225h.022a5.6 5.6 0 0 0 1.429-.094 5.846 5.846 0 0 0 1.455-.432l.034-.015a6.2 6.2 0 0 0 3.69-4.264l.114-.585.59.084a4.607 4.607 0 0 0 .656.057 5.991 5.991 0 0 0 .7-.049 6.809 6.809 0 0 0 .723-.133 5.1 5.1 0 0 0 .675-.235l.016-.007c.237-.1.477-.213.712-.338l.026-.014a6.421 6.421 0 0 0 .643-.436l.022-.017a6.851 6.851 0 0 0 .62-.523l.021-.021c.2-.212.4-.436.587-.665.083-.1.163-.206.241-.311q.026-.035.049-.072c.071-.111.139-.223.2-.337.14-.241.27-.488.387-.736l.029-.067a7.063 7.063 0 0 0 .429-1.487c0-.02.006-.04.008-.061a5.941 5.941 0 0 0 .021-1.46 5.243 5.243 0 0 0-.346-1.329l-.228-.532.511-.271a5.707 5.707 0 0 0 1.1-.767l.038-.035a6.414 6.414 0 0 0 .921-1.09 6.762 6.762 0 0 0 1.044-2.911v-.02a6.454 6.454 0 0 0-.325-2.957zM47.317 62.92l4.678 2.28H52a12.282 12.282 0 0 1 6.951 10.98 1.781 1.781 0 0 1-1.779 1.779h-1.559a1.781 1.781 0 0 1-1.779-1.779 7.048 7.048 0 0 0-4.061-6.373l-4.7-2.291a13.741 13.741 0 0 1-7.641-11.44c.1-.02.2-.041.3-.066a1.279 1.279 0 0 0-.626-2.481 3.99 3.99 0 0 1-4.377-5.958 7.17 7.17 0 0 0 5.524 4.216l.4.056.116.383a6.106 6.106 0 0 0 1.731 2.75 6.186 6.186 0 0 0 2.079 1.257 8.594 8.594 0 0 0 4.738 6.687zm31.118-29.568v.041a4.15 4.15 0 0 1-.64 1.782 3.888 3.888 0 0 1-.531.625 3.145 3.145 0 0 1-.589.407l-1.285.68c-.037 0-.074-.006-.111-.006h-2.225a2.69 2.69 0 0 1-2.687-2.687 5.252 5.252 0 0 0-5.246-5.246h-.186a5.252 5.252 0 0 0-5.246 5.246 2.385 2.385 0 0 1-2.382 2.382 2.69 2.69 0 0 1-2.687-2.687V32.77a1.279 1.279 0 1 0-2.559 0v1.119a5.252 5.252 0 0 0 5.246 5.246 4.946 4.946 0 0 0 4.941-4.941 2.69 2.69 0 0 1 2.687-2.687h.186a2.69 2.69 0 0 1 2.687 2.687 5.252 5.252 0 0 0 5.246 5.246h1.819l.359.838a2.848 2.848 0 0 1 .164.681 3.548 3.548 0 0 1-.028.773 4.514 4.514 0 0 1-.259.881 6.637 6.637 0 0 1-.266.5q-.063.108-.13.214c-.048.064-.1.127-.148.19a6.817 6.817 0 0 1-.421.478c-.085.081-.24.2-.37.3-.105.078-.269.2-.357.251a5.881 5.881 0 0 1-.46.219c-.093.037-.265.107-.317.121a4.284 4.284 0 0 1-.45.083 3.462 3.462 0 0 1-.39.031c-.059 0-.227-.024-.283-.032l-1.793-.254a1.279 1.279 0 0 0-1.435 1.022l-.347 1.777a3.643 3.643 0 0 1-2.189 2.4l-.016.007-.049.022-.016.007a3.382 3.382 0 0 1-.84.242 3.855 3.855 0 0 1-.65.069c-.042 0-.084 0-.14-.006h-.046a4.193 4.193 0 0 1-.842-.137 3.1 3.1 0 0 1-.647-.285l-1.649-.918a1.279 1.279 0 0 0-1.733.484l-.935 1.639a3.706 3.706 0 0 1-.442.614 4.061 4.061 0 0 1-.617.526 4.118 4.118 0 0 1-1.629.664 4.309 4.309 0 0 1-1.689-.059 3.95 3.95 0 0 1-1.383-.7l-.858-.685a1.276 1.276 0 0 0 .006-.129v-.186a5.252 5.252 0 0 0-5.246-5.246 2.385 2.385 0 0 1-2.382-2.382 2.69 2.69 0 0 1 2.687-2.687h1.119a1.279 1.279 0 0 0 0-2.559h-1.118a5.252 5.252 0 0 0-5.246 5.246 4.946 4.946 0 0 0 4.941 4.946 2.69 2.69 0 0 1 2.687 2.687v.136l-1.088 1.397a3.821 3.821 0 0 1-1.212 1 4.1 4.1 0 0 1-1.644.448A3.643 3.643 0 0 1 44.069 54h-.016a4.8 4.8 0 0 1-.581-.159 3.6 3.6 0 0 1-1.247-.751 3.548 3.548 0 0 1-1.011-1.593l-.352-1.165a1.279 1.279 0 0 0-1.045-.9l-1.2-.171a4.6 4.6 0 0 1-3.7-3.131l-.534-1.664a1.278 1.278 0 0 0-1.5-.856l-1.7.387a4.075 4.075 0 0 1-1.029.1 3.9 3.9 0 0 1-2.861-1.338l-1.257-1.488a1.279 1.279 0 0 0-1.824-.134l-1.461 1.289a3.788 3.788 0 0 1-3.057.87 3.853 3.853 0 0 1-2.749-1.696l-.971-1.637a1.279 1.279 0 0 0-1.751-.449l-1.639.968a2.616 2.616 0 0 1-.6.235 3.252 3.252 0 0 1-.331.076 4.543 4.543 0 0 1-.457.031h-.1a4.031 4.031 0 0 1-1.73-.451 7.135 7.135 0 0 1-.508-.315l-.1-.069-.059-.04c-.073-.061-.157-.135-.232-.2a5.597 5.597 0 0 1-.372-.371 6.022 6.022 0 0 1-.425-.611c-.031-.055-.06-.124-.088-.187a4.334 4.334 0 0 1-.161-.418 2.634 2.634 0 0 1-.081-.681l.015-1.549a1.279 1.279 0 0 0-1-1.262l-1.513-.333a2.516 2.516 0 0 1-.615-.228 4.147 4.147 0 0 1-.346-.249q-.088-.07-.175-.146l-.072-.08-.043-.047a6.298 6.298 0 0 1-.359-.449 6.904 6.904 0 0 1-.388-.756l-.034-.109-.026-.082a8.024 8.024 0 0 1-.168-.649 3.411 3.411 0 0 1 1.031-3.2L5 27.288a1.28 1.28 0 0 0 .309-1.688l-.9-1.463a2.776 2.776 0 0 1-.291-.608 3.74 3.74 0 0 1-.138-.83 4.113 4.113 0 0 1 .447-1.933c.1-.188.187-.347.273-.483.106-.144.217-.284.338-.424l.036-.042a3.356 3.356 0 0 1 .664-.575l.037-.027a2.821 2.821 0 0 1 .649-.323c.116-.043.218-.075.305-.1a3.391 3.391 0 0 1 .339-.05l1.827-.169a1.279 1.279 0 0 0 1.16-1.342l-.1-1.831a3.155 3.155 0 0 1 .309-1.437 4.723 4.723 0 0 1 .469-.756 5 5 0 0 1 .684-.685 4.838 4.838 0 0 1 .816-.512 4.559 4.559 0 0 1 .85-.292 4.287 4.287 0 0 1 .771-.075h.074a3.109 3.109 0 0 1 .7.112l1.783.47a2.69 2.69 0 0 1-.015 3.784 5.246 5.246 0 0 0 0 7.419l.132.132a5.246 5.246 0 0 0 7.419 0 2.385 2.385 0 0 1 3.369 0 2.69 2.69 0 0 1 0 3.8l-.791.791a1.279 1.279 0 0 0 1.809 1.809l.791-.791a5.252 5.252 0 0 0 0-7.419 4.946 4.946 0 0 0-6.987 0 2.688 2.688 0 0 1-3.8 0l-.132-.132a2.688 2.688 0 0 1 0-3.8 5.251 5.251 0 0 0 .048-7.369l.256-.92a3.368 3.368 0 0 1 .744-1.29 4.893 4.893 0 0 1 .666-.579 5.062 5.062 0 0 1 .836-.444 4.032 4.032 0 0 1 1.5-.291 3.471 3.471 0 0 1 1.7.42l1.652.925a1.279 1.279 0 0 0 1.737-.483l.937-1.646a3.771 3.771 0 0 1 2.659-1.783 4.305 4.305 0 0 1 .712-.06 3.627 3.627 0 0 1 2.392.837l1.01.878V10a5.252 5.252 0 0 0 5.246 5.246 2.69 2.69 0 0 1 2.687 2.687v.186a2.69 2.69 0 0 1-2.687 2.687 4.946 4.946 0 0 0-4.941 4.941A5.252 5.252 0 0 0 40.588 31h1.119a1.279 1.279 0 0 0 0-2.559h-1.119a2.69 2.69 0 0 1-2.688-2.688 2.385 2.385 0 0 1 2.382-2.382 5.252 5.252 0 0 0 5.246-5.246v-.186a5.252 5.252 0 0 0-5.246-5.246A2.69 2.69 0 0 1 37.6 10V6.043c0-.036 0-.072-.005-.107l.966-1.147a2.861 2.861 0 0 1 .506-.468 4.23 4.23 0 0 1 .7-.416 4.127 4.127 0 0 1 1.582-.341h.181a4.069 4.069 0 0 1 1.67.394 4.218 4.218 0 0 1 .683.438 2.825 2.825 0 0 1 .492.486l1.2 1.522a1.279 1.279 0 0 0 1.812.2l1.5-1.221a3.789 3.789 0 0 1 3.132-.666A3.742 3.742 0 0 1 54.6 6.6l.874 1.686a1.279 1.279 0 0 0 1.72.549l1.69-.868a3.358 3.358 0 0 1 1.529-.35 4.032 4.032 0 0 1 1.681.374A3.754 3.754 0 0 1 64.22 10.4l.154.676a5.184 5.184 0 0 0-2.233 1.908 5.405 5.405 0 0 0-.812 3.959 2.382 2.382 0 0 1-1.916 2.772 2.688 2.688 0 0 1-3.127-2.161l-.2-1.1a1.279 1.279 0 1 0-2.517.46l.2 1.1a5.249 5.249 0 0 0 5.149 4.305 5.289 5.289 0 0 0 .953-.087 4.941 4.941 0 0 0 3.973-5.748 2.9 2.9 0 0 1 .432-2.093 2.585 2.585 0 0 1 1.7-1.15l.051-.012a1.318 1.318 0 0 0 .134-.022L68 12.8a3.507 3.507 0 0 1 .365-.059c.007 0 .068-.006.187-.006h.126a3.34 3.34 0 0 1 .748.1 4.317 4.317 0 0 1 .838.322 4.846 4.846 0 0 1 .817.566 4.168 4.168 0 0 1 1.1 1.534 3.447 3.447 0 0 1 .212.764 3.371 3.371 0 0 1 .012.784l-.193 1.743a1.28 1.28 0 0 0 1.025 1.4l1.722.338a3.312 3.312 0 0 1 .736.245 3.589 3.589 0 0 1 .689.468 1.93 1.93 0 0 1 .223.222c.133.147.256.3.381.464l.017.022c.033.047.118.2.174.3l.031.055c.085.161.178.342.224.463a4.1 4.1 0 0 1 .259 1.993 4.992 4.992 0 0 1-.1.514c-.017.059-.083.22-.114.294a2.233 2.233 0 0 1-.287.512l-1.155 1.346a1.279 1.279 0 0 0 .069 1.741l1.259 1.25a2.915 2.915 0 0 1 .24.271c.037.047.074.1.109.147l.173.26a3.659 3.659 0 0 1 .347.692 3.9 3.9 0 0 1 .201 1.807z" transform="translate(.23 -.008)" style="fill:#fff"/>
        </g>
    </g>
</svg>
