<svg xmlns="http://www.w3.org/2000/svg" width="81" height="82">
    <defs>
        <clipPath id="a">
            <rect data-name="Retângulo 471" width="81" height="82" rx="10" transform="translate(.238 -.438)" style="stroke:#707070;fill:#fff"/>
        </clipPath>
    </defs>
    <g data-name="Grupo de máscara 11" transform="translate(-.238 .438)" style="clip-path:url(#a)">
        <path data-name="Caminho 1063" d="M79.074 60.154h-4.806A7.834 7.834 0 0 0 76.8 55.8a10.6 10.6 0 0 0 .02-3.8 13.687 13.687 0 0 1 .1-4.971 3.268 3.268 0 0 0-.736-3.386c-1-.882-2.641-.92-4.869-.11a5.582 5.582 0 0 0-1.876 1.139 8.916 8.916 0 0 0-10.737 3.569 18.416 18.416 0 0 0-5.615-2.441 1.187 1.187 0 1 0-.6 2.3 15.746 15.746 0 0 1 5.113 2.275c-.037.1-.072.2-.106.3a8.581 8.581 0 0 0-.412 3.56 9.818 9.818 0 0 0 2.735 5.919H48.205v-3.691h3.155a1.187 1.187 0 1 0 0-2.374H37.7v-4.435a4.4 4.4 0 0 0 .448-.23 17.964 17.964 0 0 1 9.057-2.024h.02a1.187 1.187 0 0 0 .019-2.374 24.493 24.493 0 0 0-3.973.256v-6.311a10.011 10.011 0 0 0 2.816-3.1 8.9 8.9 0 0 0 1.262-5.005c.013-.313.028-.656.048-1.038v-2.975a6.268 6.268 0 0 0-6.26-6.261h-.415a9.488 9.488 0 0 0 2.934-6.224v-2.435a10.356 10.356 0 0 0-2.833-7.518 9.029 9.029 0 0 0-6.293-2.641h-.038A9.036 9.036 0 0 0 28.2 4.415a10.352 10.352 0 0 0-2.836 7.518v2.436a9.486 9.486 0 0 0 2.936 6.224h-.417a6.126 6.126 0 0 0-5.465 3.3l-6.912 11.219c-.782-1.4-2.719-4.422-5.01-4.6a2.3 2.3 0 0 0-1.971.562 2.164 2.164 0 0 0-.317 1.968l1.67 9.522a2.944 2.944 0 0 0 .822 1.966 2.536 2.536 0 0 0 2.034.319c.16-.017.339-.036.543-.055a13.44 13.44 0 0 1 6.714 1.08 20.016 20.016 0 0 1 2.662 1.481v6.361h-9.66c-1.4 0-1.434-.079-1.614-.459-.232-.492-2.353-4.816-5.244-5.037a2.293 2.293 0 0 0-1.975.563 2.143 2.143 0 0 0-.312 1.979l1.644 9.392H1.945A1.947 1.947 0 0 0 0 62.1v9.3a1.949 1.949 0 0 0 1.945 1.949H4.9v2.2a4.583 4.583 0 0 0 4.578 4.578h62.06a4.583 4.583 0 0 0 4.578-4.578v-2.2h2.958a1.952 1.952 0 0 0 1.949-1.949v-9.3a1.949 1.949 0 0 0-1.949-1.945zM70.745 53.1a6.967 6.967 0 0 1-.537-5.478 3.233 3.233 0 0 1 1.91-1.851 6.055 6.055 0 0 1 1.977-.439.9.9 0 0 1 .514.1c.041.036.158.325-.012 1.085a16.091 16.091 0 0 0-.138 5.763 8.733 8.733 0 0 1 .029 2.974c-.674 2.832-2.314 4.2-6.182 4.684l.031-.026c3.282-2.835 3.121-5.271 2.408-6.812zm-11.3.886a6.191 6.191 0 0 1 .3-2.563 7.138 7.138 0 0 1 5.737-4.923 6.781 6.781 0 0 1 2.533.21 9.263 9.263 0 0 0 .574 7.38c1.162 2.515-3.26 5.191-4.662 5.961a7.123 7.123 0 0 1-4.483-6.069zm-13.613 2.48v3.691H35.5a1.85 1.85 0 0 1 .177-3.691zM40.9 45.767a16.14 16.14 0 0 0-3.948 1.607l-.064.037c-.132-.156-.3-.376-.461-.578a45.144 45.144 0 0 0-.722-.909 25.262 25.262 0 0 0-2.4-2.476l6.537-2.637c.341-.138.7-.291 1.06-.46v5.417zm-10.311-3.785a1.473 1.473 0 0 1-1.089-2.735l.032-.013 6-2.6 1.41 2.786zm3.923-37.834A6.863 6.863 0 0 1 41.19 10.5c-2.593-.494-7.883-1.553-8.5-1.713a3.823 3.823 0 0 0-.959-.128 4.4 4.4 0 0 0-2.59 1.021 6.59 6.59 0 0 1-1.306.764 6.86 6.86 0 0 1 6.675-6.3zm-6.776 10.221v-1.414A7.52 7.52 0 0 0 30.5 11.63c.779-.542 1.029-.691 1.6-.544.426.11 6.581 1.369 9.185 1.849v1.435c0 2.04-1.947 5.03-4.631 6.307a1.2 1.2 0 0 0-.11.05c-.147.067-.3.13-.447.186a4.512 4.512 0 0 1-1.583.327 4.57 4.57 0 0 1-1.582-.325 6.636 6.636 0 0 1-.43-.18 1.206 1.206 0 0 0-.118-.055c-2.494-1.2-4.645-4.06-4.645-6.31zm9.514 8.638v.356a2.959 2.959 0 0 1-2.738 3.137 2.961 2.961 0 0 1-2.743-3.133v-.357q.168.071.338.134a6.356 6.356 0 0 0 4.81 0q.167-.062.333-.132zm-12.812 2.128a3.748 3.748 0 0 1 3.444-2.168H29.4v.4a5.329 5.329 0 0 0 5.116 5.507 5.326 5.326 0 0 0 5.112-5.507v-.4h1.513a3.891 3.891 0 0 1 3.887 3.887v2.881c-.02.378-.034.719-.047 1.031a6.581 6.581 0 0 1-.947 3.919 9.2 9.2 0 0 1-4.887 3.843L37.7 35.669a5.31 5.31 0 0 0 1.5-1.177 1.176 1.176 0 0 0 .155-.2l1.431-2.355a1.187 1.187 0 1 0-2.031-1.237l-1.363 2.243a3.275 3.275 0 0 1-1.343.878L28.6 37.05a3.805 3.805 0 0 0-1.648 1.285A15.252 15.252 0 0 0 23.569 37l2.417-3.929a1.187 1.187 0 1 0-2.022-1.244L21.1 36.481c-1.147-.184-2.3-.3-3.413-.389zM16.646 42.5a16.13 16.13 0 0 0-3.585-.071c-.217.02-.714.073-.78.08-.024-.127-1.677-9.553-1.677-9.553.938.4 2.35 2.245 3.125 3.872a2.274 2.274 0 0 0 1.536 1.478c.739.1 1.277.079 1.52.1.314.022.633.047.953.074zm8.381 6.741a9.307 9.307 0 0 1 2.766 4.067 8.864 8.864 0 0 1-2.766.364zm-9.958 6.848h7.475c4.607 0 6.193-.272 7.069-1.212a2.131 2.131 0 0 0 .557-1.652c-.15-2.189-3.17-6.725-9.183-9.505a14.052 14.052 0 0 0-2.012-.736l1.152-4.247a15.854 15.854 0 0 1 6.073 1.906 3.845 3.845 0 0 0 4.57 3.75 24.962 24.962 0 0 1 3.1 3.035c.27.331.491.615.687.866a9.893 9.893 0 0 0 .773.915v4.9a4.221 4.221 0 0 0-3.448 6.049H15.069zm-5.835-1.816c.8 1.686 2.181 1.808 3.461 1.817v4.064H7.9l-1.662-9.5c.948.375 2.277 2.095 2.996 3.619zM78.65 70.979H43.344a1.187 1.187 0 1 0 0 2.374h30.4v2.2a2.207 2.207 0 0 1-2.2 2.2H9.481a2.207 2.207 0 0 1-2.2-2.2v-2.2h30.842a1.187 1.187 0 1 0 0-2.374H2.374v-8.451H78.65z" transform="translate(.23 -.296)" style="fill:#fff"/>
    </g>
</svg>
