<svg xmlns="http://www.w3.org/2000/svg" width="132.453" height="61.704">
    <defs>
        <style>
            .cls-4{fill:#1a4e60}
        </style>
    </defs>
    <g id="Camada_2" data-name="Camada 2" transform="translate(-118.35 191.003)">
        <g id="Camada_1" data-name="Camada 1" transform="translate(85 -191.003)">
            <text id="Agenda_Saúde" data-name="Agenda Saúde" transform="translate(103.803 33.101)" style="font-size:17px;font-family:Ubuntu-Bold,Ubuntu;font-weight:700;fill:#1a4e60"><tspan x="0" y="0" style="letter-spacing:-.01em">A</tspan><tspan y="0">genda</tspan><tspan x="0" y="19" style="letter-spacing:.01em">S</tspan><tspan y="19">aúde</tspan></text>
            <path id="Caminho_1085" data-name="Caminho 1085" class="cls-4" d="M90.657 0h-5.73a3.008 3.008 0 0 0-3.087 2.881v9.149h3.36V3.362h5.178v8.668h3.364V2.881A3.008 3.008 0 0 0 90.657 0z" transform="translate(-40.815 .002)"/>
            <path id="Caminho_1086" data-name="Caminho 1086" class="cls-4" d="M141.828 0h-5.735A3.008 3.008 0 0 0 133 2.881v9.148h3.364V3.362h5.183v8.667h3.364V2.881A3.008 3.008 0 0 0 141.828 0z" transform="translate(-66.33 .003)"/>
            <path id="Caminho_1087" data-name="Caminho 1087" d="M112.417 20.94H73.548a7.018 7.018 0 0 0-7.018 7.018v36.969c0 3.915 2.557 6.517 6.837 7.018l.266.035c2.055.326 7.484 1.178 19.349-9.589 7.133 6.472 13.033 9.755 17.545 9.755a10.915 10.915 0 0 0 1.754-.155h.06c.1 0 .18-.03.261-.035 4.276-.471 6.832-3.093 6.832-7.018V27.953a7.018 7.018 0 0 0-7.018-7.013zM83.057 46a4.326 4.326 0 0 1 4.316-4.321c1.729 0 2.692.942 4.2 3.058l1.4 1.97 1.358-2.005c1.5-2.236 2.612-3.008 4.171-3.008a4.316 4.316 0 0 1 3.349 7.028l-.451.471-8.442 8.437-8.151-8.156a12.342 12.342 0 0 1-.872-.967A4.126 4.126 0 0 1 83.057 46zm20.593 5.7.1-.09.617-.622.045-.055a7.68 7.68 0 0 0-5.9-12.617 7.223 7.223 0 0 0-5.574 2.707 7.166 7.166 0 0 0-5.559-2.7A7.69 7.69 0 0 0 79.694 46a7.474 7.474 0 0 0 1.534 4.512 15.039 15.039 0 0 0 1.172 1.317l8.191 8.186c-10.567 9.554-14.973 8.868-16.447 8.632a3.634 3.634 0 0 1-.406-.055c-2.582-.286-3.84-1.5-3.84-3.664V27.953a3.654 3.654 0 0 1 3.65-3.653h38.869a3.654 3.654 0 0 1 3.654 3.649v36.973c0 2.181-1.258 3.379-3.835 3.664a2.856 2.856 0 0 0-.426.06c-1.434.226-5.87.947-16.472-8.657z" transform="translate(-33.18 -10.442)" style="fill:#46d5cb"/>
        </g>
    </g>
</svg>
